<svg xmlns="http://www.w3.org/2000/svg" aria-hidden="true" style="position:absolute;width:0;height:0;overflow:hidden"><defs><symbol id="icon-Arrow-1" viewBox="0 0 195 32"><path fill="#fff" d="M193.415 17.414c.78-.781.78-2.047 0-2.829L180.687 1.857a2 2 0 0 0-2.829 2.828l11.315 11.314-11.315 11.314a2 2 0 0 0 2.829 2.828l12.728-12.728zM0 18h192v-4H0v4z" style="fill:var(--color1, #fff)"/></symbol><symbol id="icon-Arrow-2" viewBox="0 0 195 32"><path fill="#fff" d="M1.252 14.586a2 2 0 0 0 0 2.828L13.98 30.142a2 2 0 1 0 2.828-2.828L5.494 16 16.808 4.686a2 2 0 1 0-2.828-2.828L1.252 14.586zM194.667 14h-192v4h192v-4z" style="fill:var(--color1, #fff)"/></symbol><symbol id="icon-Logo-footer" viewBox="0 0 45 32"><path fill="#fff" d="m15.853 27.23-.023-.008c.186-.095.342-.258.436-.439.081-.144.13-.31.178-.47l.05-.163c.069-.21.155-.4.331-.533l.054-.04c.127-.093.257-.189.334-.337.111-.2.064-.389.019-.569l-.015-.06a.81.81 0 0 1 .261-.775.588.588 0 0 0 .19.191c.17.107.398.137.6.053l.002-.001a.582.582 0 0 0 .044-.024l.005-.003.038-.02c.021-.009.036-.01.053-.001a.619.619 0 0 1 .045.039l.031.029c.01.009.022.018.035.025.083.048.195.087.294.051a.34.34 0 0 0 .118-.055l.013-.009c.029-.019.054-.036.084-.048l.003-.001.002-.001c.058-.031.113-.026.176-.003.032.012.064.028.1.046l.013.006c.031.016.064.033.098.047l.002.001c.171.066.398.085.577-.019a.362.362 0 0 0 .183-.287.841.841 0 0 0-.049-.33 43.905 43.905 0 0 1-.096-.322c-.129-.439-.264-.897-.461-1.304a1.888 1.888 0 0 0-.399-.546 1.405 1.405 0 0 0-.063-.068l-.062-.067a.497.497 0 0 1-.094-.148c-.02-.057-.028-.115-.037-.175l-.004-.026a.646.646 0 0 0-.06-.213l-.001-.002a.802.802 0 0 0-.378-.332c-.054-.029-.119-.052-.18-.075a2.806 2.806 0 0 1-.072-.027.536.536 0 0 1-.208-.124l-.002-.002a.182.182 0 0 1-.056-.125.541.541 0 0 1 .001-.08l.001-.015c.001-.025.003-.051.003-.078v-.443a3.721 3.721 0 0 0-.132-.844v-.001a.457.457 0 0 0-.213-.277.684.684 0 0 0-.336-.068c-.103 0-.169-.051-.23-.129-.026-.032-.049-.068-.074-.106l-.016-.025a1.095 1.095 0 0 0-.103-.135c-.169-.195-.449-.337-.72-.2a.267.267 0 0 0-.083.055l-.013.012-.018.016a.093.093 0 0 1-.018.013l-.013.006-.001.003-.023-.019-.011-.008a.09.09 0 0 1-.024-.026l-.003-.006-.005-.005a1.177 1.177 0 0 0-.289-.212 2.243 2.243 0 0 0-.308-.122l-.077-.026c-.08-.027-.16-.053-.237-.084-.203-.079-.379-.181-.486-.364l-.004-.008-.007-.005a.215.215 0 0 0-.14-.05c-.021.001-.044.008-.062.027s-.022.045-.016.068c.037.338.336.52.595.644l.043.023c.13.069.242.128.354.237.039.037.074.077.112.119.025.029.052.058.081.088a.97.97 0 0 0 .242.194c.2.105.397.05.567-.065.048-.031.066-.032.077-.029.006.002.015.006.028.017s.029.028.049.051l.003.003a.741.741 0 0 1 .098.126l.016.025c.024.038.05.078.078.112a.675.675 0 0 0 .505.284h.004a.46.46 0 0 0 .036-.002l.007-.001.033-.003.036-.001.012.001.002.001c.015.01.02.019.024.028s.007.021.011.037l.008.031.015.065c.027.116.052.222.065.338.016.131.02.259.022.387l.001.075c.001.102.003.203.009.305 0 .199.07.386.245.521a.925.925 0 0 0 .215.123c.036.016.073.031.11.045l.007.003.114.047c.15.066.261.141.289.275v.001l.02.086c.036.164.069.311.202.467.05.058.103.113.155.166l.093.098c.078.085.149.172.203.277v.001c.181.338.29.719.395 1.089.035.124.07.246.107.366v.001l.048.14c.005.018.013.037.019.052l.001.001c.007.017.013.031.016.043.003.011.002.015.002.015l-.011.006c-.011.004-.027.006-.049.003s-.047-.01-.073-.019a1.013 1.013 0 0 1-.117-.052l-.019-.009-.002-.001a.888.888 0 0 0-.36-.082.362.362 0 0 0-.165.042l-.06.033-.007.004a1.307 1.307 0 0 1-.064.035c-.023.009-.036.01-.045.008s-.018-.006-.03-.015l-.024-.02a.233.233 0 0 0-.022-.019.32.32 0 0 0-.069-.047.35.35 0 0 0-.297-.018.639.639 0 0 0-.081.035l-.033.017-.046.023c-.053.026-.095.039-.129.034h-.002c-.053-.006-.09-.031-.113-.065s-.034-.082-.027-.136v-.001c.005-.046-.005-.086-.028-.119s-.053-.055-.087-.069a.266.266 0 0 0-.209 0c-.335.146-.606.405-.725.748a1.095 1.095 0 0 0-.068.523c.004.054.015.108.025.158v.003c.01.05.02.096.023.141.007.087-.007.162-.083.228-.048.04-.098.076-.149.113l-.05.036a1.29 1.29 0 0 0-.196.169l-.001.002c-.136.164-.204.344-.269.533v.001a3.021 3.021 0 0 0-.039.136c-.04.145-.087.314-.162.454a.541.541 0 0 1-.18.213.326.326 0 0 1-.268.032h-.001a.24.24 0 0 0-.3.231.453.453 0 0 0 .094.307.703.703 0 0 0 .238.182c.068.035.142.065.214.095l.071.029c.094.04.18.08.249.131.169.139.35.21.537.212s.375-.065.56-.195c.08-.053.154-.115.226-.177l.028-.024c.062-.054.123-.107.186-.153.144-.107.296-.179.493-.157h.001c.328.03.649.271.694.591v.001c.021.13.131.185.226.175.047-.005.094-.026.126-.066s.044-.094.03-.156c-.103-.641-.832-1.079-1.475-.899-.206.058-.364.191-.512.316l-.004.003c-.149.126-.288.243-.463.295h-.001a.288.288 0 0 1-.259-.035c-.035-.021-.069-.047-.107-.076l-.014-.01a1.232 1.232 0 0 0-.138-.094.644.644 0 0 0-.151-.069l-.067-.023z" style="fill:var(--color1, #fff)"/><path fill="#fff" d="M18.515 26.169c.049.584.147 1.152.262 1.719.014.079.089.105.146.097a.137.137 0 0 0 .122-.137c0-.374-.014-.748-.043-1.121l.064.067.002.002c.044.042.11.06.171.056s.127-.034.161-.099v-.001c.118-.228.237-.456.343-.686a.527.527 0 0 0 .188.034.573.573 0 0 0 .296-.093l.065-.039a.95.95 0 0 1 .176-.091c.165-.055.337-.06.517-.065l.049-.001c.196-.006.4-.018.597-.108l.002-.001a.865.865 0 0 0 .465-.88v-.001c-.058-.322-.309-.547-.608-.632.008-.119.094-.229.222-.328.168-.129.391-.226.537-.28.403-.14.821-.201 1.238-.171.065.005.118-.016.155-.054s.052-.087.052-.136a.21.21 0 0 0-.2-.213 3.257 3.257 0 0 0-1.654.303 1.767 1.767 0 0 0-.595.427c-.158.187-.243.42-.146.683l.001.002c.019.045.043.08.078.105s.074.039.118.047l.003.001h.003c.24.014.428.216.399.437v.001a.372.372 0 0 1-.17.275.77.77 0 0 1-.33.111 3.506 3.506 0 0 1-.297.023l-.05.002a2.404 2.404 0 0 0-.357.038 1.117 1.117 0 0 0-.305.098l-.002.001a.798.798 0 0 0-.07.044l-.025.016c-.033.021-.064.04-.095.052s-.056.016-.078.012c-.02-.004-.043-.016-.066-.048a.226.226 0 0 0-.385.037l-.001.002-.001.002a3.886 3.886 0 0 1-.038.097h-.005l.003.005a6.012 6.012 0 0 1-.247.529l-.048-.048a14.546 14.546 0 0 1-.244-.251l-.002-.001a.228.228 0 0 0-.236-.041c-.077.029-.143.1-.133.203z" style="fill:var(--color1, #fff)"/><path fill="#fff" d="M24.528 24.115a.434.434 0 0 0-.02-.327c.214.029.429.057.64.078.169.016.349-.011.471-.099.062-.044.11-.104.132-.181s.017-.166-.018-.267c-.124-.357-.525-.502-.874-.502-.371 0-.742.054-1.11.107l-.364.051-.008.001-.007.004c-.078.043-.109.142-.102.222a.191.191 0 0 0 .048.115c.031.033.076.05.129.045l.082-.008.044-.004a.18.18 0 0 0-.043.146c.009.094.04.173.093.239s.124.117.209.158l.003.001.003.001c.024.008.155.054.247.105.018.01.033.019.046.029l4.551 1.256m-4.152-1.17c.169.055.328.129.485.207l.137.069c.228.115.452.229.7.3h.001c.173.053.348.065.525.063.083-.001.166-.005.25-.009l.018-.001c.09-.004.18-.008.271-.008.346 0 .693.048 1.023.143.123.032.276.076.418.136.14.06.276.138.356.241m-4.184-1.141-.016.042a.54.54 0 0 0-.043-.013m4.243 1.112-.035.027m.035-.027-.035.028m.035-.028c.046.058.067.117.065.176s-.025.11-.058.156a.796.796 0 0 1-.266.208 8.009 8.009 0 0 0-1.444.922l.001-.001-.03-.033c.441-.362.93-.661 1.452-.928.18-.094.408-.267.245-.472m2.588 4.205-.004.002a.143.143 0 0 1-.175-.023c-.047-.048-.057-.124-.019-.207l.002-.003.002-.003c.141-.204.332-.258.528-.279.057-.006.118-.009.178-.012l.115-.007c.097-.007.19-.02.279-.049.183-.066.319-.211.461-.371l.027-.031c.131-.148.269-.306.453-.398l.002-.001a1.13 1.13 0 0 1 .695-.082c.121.017.24.066.338.114l.002.001.002.002c.052.033.099.074.143.113l.001.001c.045.039.087.076.133.106.031.017.075.026.132.025s.12-.011.186-.026c.131-.031.263-.081.345-.112l.002-.001c.11-.038.187-.085.239-.148s.082-.143.09-.254v-.001c.014-.162.064-.356.187-.486h-.041c-.097.016-.19.031-.282.06a.914.914 0 0 0-.294.195l-.002.002-.003.002a.693.693 0 0 0-.048.037l-.052.04a.65.65 0 0 1-.123.071c-.191.074-.357-.04-.445-.175v-.001c-.014-.022-.025-.046-.035-.066v-.001c-.01-.022-.019-.04-.028-.055s-.017-.023-.025-.027c-.006-.004-.015-.006-.03-.004-.034.005-.07.031-.107.071-.027.029-.05.06-.071.088l-.022.029-.002.003a.801.801 0 0 1-.535.282c-.234.017-.439-.067-.616-.191s-.326-.288-.449-.439a4.153 4.153 0 0 1-.676-1.16 2.893 2.893 0 0 1-.199-.734l-.011-.066c-.031-.186-.067-.403-.021-.595.049-.235.219-.342.393-.451l.051-.032.001-.001c.105-.063.211-.129.317-.196.106-.067.212-.134.318-.197.22-.142.441-.279.661-.417.22-.138.44-.275.66-.416.04-.026.079-.054.119-.081.168-.117.341-.236.545-.302l.002-.001.004-.001c.11-.03.231-.064.353-.048.069 0 .133.013.191.024l.004.001c.059.012.11.022.161.022.096 0 .19-.036.291-.082l.069-.033c.079-.038.162-.078.247-.103l.004-.001c.212-.044.359-.01.534.031l.07.016c.081.013.145-.016.206-.065.046-.037.085-.083.127-.131l.05-.057.002-.002.002-.003c.113-.108.232-.223.386-.289l.003-.001c.105-.036.213-.05.316-.063l.043-.006c.117-.016.229-.035.336-.086.088-.046.171-.1.257-.155l.001-.001c.085-.055.172-.111.263-.159.219-.114.439-.163.676-.146h.001l.107.013.049.006c.057.007.115.013.173.014.117.002.22-.018.289-.084a.248.248 0 0 0 .066-.152c.005-.031.007-.064.01-.098v-.01c.002-.03.004-.062.008-.092v-.001l.049-.33v-.003c.049-.238.116-.477.215-.701m-8.857 9.634 7.97-7.744m-7.97 7.744.003-.003a.353.353 0 0 1 .244-.08 1.225 1.225 0 0 1 .182.016c.037.005.076.009.113.012.197.016.402.017.592-.066.18-.074.319-.197.448-.326l.092-.093c.097-.099.191-.196.3-.278.157-.105.339-.162.519-.119h.001a.6.6 0 0 1 .264.152l.023.02c.075.064.157.134.261.173h.001a.676.676 0 0 0 .306.022c.066-.008.133-.021.196-.034l.092-.018.003-.001c.198-.048.384-.112.553-.227l.001-.001c.131-.095.27-.21.34-.363a.774.774 0 0 0 .07-.265l.005-.038a.47.47 0 0 1 .098-.255l.001-.002.036-.045c.038-.047.078-.096.107-.148a.354.354 0 0 0 .046-.252.33.33 0 0 0-.159-.222.588.588 0 0 0-.255-.081 1.216 1.216 0 0 0-.591.049 1.695 1.695 0 0 0-.284.119.681.681 0 0 0-.217.17m-3.391 2.184 3.391-2.18m5.468-7.454c.083-.193.203-.377.413-.478l.004-.002c.055-.02.108-.036.159-.051l.017-.005a2.84 2.84 0 0 0 .129-.04.65.65 0 0 0 .251-.145l.002-.002c.043-.037.086-.076.129-.116.035-.032.07-.065.108-.098.082-.073.169-.143.261-.198s.193-.093.301-.101a.61.61 0 0 1 .345.083l.002.001c.041.025.068.06.078.099s.004.078-.012.112a.192.192 0 0 1-.192.108h-.002c-.13-.021-.244.03-.351.113a1.984 1.984 0 0 0-.206.193l-.09.091-.001.001c-.202.179-.388.26-.636.339a.452.452 0 0 0-.271.249c-.053.104-.083.224-.113.34l-.011.041v.001a3.659 3.659 0 0 0-.11.645l-.019.166v.002a.626.626 0 0 1-.401.516c-.199.081-.444.088-.674.072m.89-1.936.041.018-.041-.018zm-.892 1.934.003-.044m-.003.044.002-.044m-.002.044c-.143-.008-.256.004-.363.034s-.209.079-.33.149m.696-.227c-.294-.016-.473.047-.718.189m.023.038.001-.001-.024-.037m.023.038-.058.037c-.173.112-.345.224-.557.282a1.48 1.48 0 0 1-.176.035l-.052.007-.112.017a.552.552 0 0 0-.278.119l-.003.003a1.023 1.023 0 0 0-.164.159l-.001.002c-.052.058-.108.12-.177.17m1.578-.831h-.001l-.022-.039m0 .001-1.556.87m0-.001c-.153.114-.328.184-.523.15m.523-.15-.026-.036c-.147.11-.31.173-.49.142m-.008.044.007-.044m-.007.044.008-.044m-.008.044c-.038-.006-.079-.017-.119-.027l-.042-.011a.639.639 0 0 0-.159-.024.41.41 0 0 0-.13.025c-.031.01-.059.022-.087.033l-.042.017m.587-.057c-.036-.006-.074-.016-.113-.026a.85.85 0 0 0-.213-.037.655.655 0 0 0-.236.062l-.041.016m-.001.001.018.041h-.001m-.017-.041-.072.032c-.156.07-.313.141-.483.141a1.74 1.74 0 0 1-.226-.018c-.156-.019-.296-.037-.476.049m1.257-.204.016.042h.001m0-.001-.07.031c-.155.07-.322.145-.502.145-.068 0-.13-.006-.188-.013l-.044-.005c-.042-.005-.082-.01-.122-.013a.615.615 0 0 0-.328.058m-.019-.04.02.04h-.001m-.019-.04a8.612 8.612 0 0 0-.81.497c-.164.109-.327.218-.496.321m1.306-.818.019.04h.001m-.001 0a7.27 7.27 0 0 0-.654.394l-.15.1c-.164.109-.328.219-.498.322m-.023-.038.023.038m-.023-.038c-.114.071-.224.142-.334.212s-.22.142-.334.212c-.066.043-.14.083-.215.125-.146.081-.297.164-.405.268-.124.119-.062.416-.02.62l.02.103m1.288-1.54.023.038m0 0c-.114.07-.224.141-.334.212-.11.071-.22.142-.335.212m-.643 1.08.043-.01v.001m-.043.009c.049.204.098.409.179.613.163.425.424.834.751 1.164.131.142.375.346.587.267.106-.034.173-.123.241-.212a.667.667 0 0 1 .199-.197m-1.957-1.635.044-.008v-.001m.6-1.071-.024-.037.023.038zm0 0a3.97 3.97 0 0 1-.219.127l-.105.059c-.11.063-.212.127-.289.202-.027.026-.045.067-.053.121s-.007.118 0 .186c.01.093.029.187.046.268l.021.107m-.001.001c.049.204.097.405.177.606.161.419.419.823.741 1.149l.001.001c.064.069.154.152.252.208s.199.081.287.048l.002-.001c.083-.027.141-.094.205-.177l.016-.021a.702.702 0 0 1 .212-.208m0 0h-.001l.022.039m-.021-.039c.176-.101.424-.104.588.035.073.053.109.124.141.185l.001.003m-.73-.223h.001l.021.039m-.001 0c.163-.094.392-.094.538.031a.453.453 0 0 1 .14.197l.031-.045m5.737-6.931a3.733 3.733 0 0 0-.112.654 9.147 9.147 0 0 1-.019.164l.13-.818zm0 0 .011-.041c.062-.244.135-.53.413-.62.245-.079.424-.157.62-.33l-1.044.991zm-4.742 6.941c.02.002.039.006.058.012l-.058-.012z" style="fill:var(--color1, #fff)"/><path fill="#fff" d="M43.964 15.915a.48.48 0 0 1 .257.1c.247.171.247.459.246.689v.008c0 .062.004.111.018.153a.235.235 0 0 0 .079.111l.007.006c.037.029.076.058.106.096a.311.311 0 0 1 .067.164v.003c.01.136-.062.242-.134.333l-.041.05a1.737 1.737 0 0 0-.066.084.465.465 0 0 0-.071.13 2.914 2.914 0 0 0-.048.303l-.002.016a2.725 2.725 0 0 1-.057.337c-.058.221-.171.421-.442.522h-.001c-.146.05-.308.057-.464.053a6.836 6.836 0 0 1-.232-.012c-.075-.004-.148-.008-.215-.008a6.72 6.72 0 0 1-.969-.063c-.042-.005-.076-.023-.097-.054s-.021-.069-.011-.101a.248.248 0 0 1 .166-.151l.004-.001.004-.001a8.861 8.861 0 0 1 1.215-.048l.243.001a.575.575 0 0 0 .263-.046c.063-.033.114-.09.152-.191.047-.152.063-.32.079-.493v-.004a.142.142 0 0 1 .004-.02c.031-.166.067-.357.185-.503l.002-.002.002-.002.109-.105a.4.4 0 0 1-.026-.021c-.017-.014-.036-.029-.052-.044a.447.447 0 0 1-.036-.039c-.103-.118-.122-.282-.137-.416l-.001-.012c-.009-.051-.009-.104-.009-.154v-.002c0-.052 0-.099-.007-.142l-.001-.004v-.004a.335.335 0 0 0-.038-.108c-.012-.02-.023-.027-.028-.029h-.005c-.002.001-.008.003-.017.012l-.003.003c-.06.049-.14.063-.21.046s-.134-.067-.155-.148v-.001a2.01 2.01 0 0 1-.025-.117c-.043-.242-.035-.506.13-.723a.644.644 0 0 1 .385-.237h.001c-.106-.029-.232-.063-.329-.142l-.002-.001a.384.384 0 0 1-.129-.351.484.484 0 0 1 .197-.316.568.568 0 0 1 .181-.09l.078-.023c.037-.011.074-.021.112-.035l.001-.001a.705.705 0 0 0 .354-.237l.001-.001c.189-.234.152-.452.106-.722a12.151 12.151 0 0 1-.018-.108V13.1a.932.932 0 0 1 .051-.429l.001-.003.001-.003a.11.11 0 0 1 .008-.015c.01-.02.021-.04.029-.059a.206.206 0 0 0 .018-.05h-.004a.229.229 0 0 0-.047.012l-.004.001a1.001 1.001 0 0 0-.164.06l-.043.019c-.038.017-.078.035-.116.049a.502.502 0 0 1-.37.012.554.554 0 0 1-.265-.188c-.024-.028-.047-.058-.07-.087l-.026-.034a.94.94 0 0 0-.097-.11c-.137-.131-.309-.143-.505-.157l-.055-.004c-.199-.016-.41-.064-.553-.236l-.001-.001a.646.646 0 0 1-.111-.221.794.794 0 0 1-.117.047l-.004.001c-.153.035-.299-.009-.431-.072-.066-.031-.13-.068-.191-.103l-.009-.005a2.588 2.588 0 0 0-.166-.091 9.106 9.106 0 0 0-.893-.376h-.001c-.022-.008-.045-.019-.068-.029l-.003-.001-.068-.029a.355.355 0 0 0-.122-.032.208.208 0 0 0-.035.002l-.005.01-.001.004c-.004.009-.009.022-.017.037l-.007.016c-.029.073-.07.174-.177.225a.515.515 0 0 1-.385.014 1.454 1.454 0 0 1-.326-.158l.023-.038a2.998 2.998 0 0 1-1.093-1.101l5.741 5.936zm0 0c0-.058.009-.113.028-.163.029-.078.067-.115.114-.137a.628.628 0 0 1 .207-.039M32.99 7.454c-.031.05-.075.078-.124.086s-.095-.005-.133-.032c-.079-.055-.116-.167-.048-.288.021-.041.025-.07.022-.09s-.013-.037-.032-.055a.355.355 0 0 0-.077-.054l-.022-.013c-.024-.014-.05-.029-.073-.045l-.003-.002a.47.47 0 0 1-.179-.325c-.016-.059-.032-.082-.05-.092-.019-.011-.053-.015-.125.001-.062.015-.12.037-.181.061h-.001c-.06.023-.124.048-.192.064l-.003.001h-.003a.872.872 0 0 1-.412-.034l-.002-.001c-.06-.025-.115-.058-.168-.089l-.001-.001c-.053-.031-.103-.061-.156-.083-.262-.083-.538-.024-.816.037l-.054.012c-.167.058-.323-.103-.284-.273a2.207 2.207 0 0 0-.176-1.496.244.244 0 0 1-.012-.193.214.214 0 0 1 .155-.138m3.15 3.042-3.138-2.997m3.138 2.997.002-.003m-.002.003.002-.003M29.84 4.414l.01.043m-.01-.043.011.043m-.011-.043.043-.011c.078-.02.157-.041.232-.068a.63.63 0 0 0 .227-.13.311.311 0 0 0 .095-.171.165.165 0 0 0-.06-.156l-.002-.002a.974.974 0 0 0-.166-.12l-.017-.011c-.057-.036-.119-.074-.173-.119l-.003-.002a1.306 1.306 0 0 1-.286-.39m.121 1.223.043-.011c.17-.044.359-.093.48-.209.114-.11.163-.283.033-.393-.053-.051-.121-.093-.19-.136-.058-.036-.117-.072-.169-.115a1.264 1.264 0 0 1-.277-.378m-.041.02.001.001.039-.021m-.04.02c-.062-.114-.11-.237-.158-.357l-.048-.12a1.434 1.434 0 0 0-.244-.425m.45.902-.001-.001.04-.019m.001 0c-.061-.111-.108-.232-.155-.351-.079-.202-.158-.403-.302-.561m-4.281.511a.682.682 0 0 0 .215-.225c.037-.058.069-.118.102-.178l.064-.117a.9.9 0 0 1 .212-.266.557.557 0 0 1 .359-.116c.131 0 .251.038.366.079l.064.023c.093.035.184.068.28.087h.001a.645.645 0 0 0 .393-.058c.066-.028.13-.061.196-.095l.001-.001c.065-.033.131-.067.198-.095l.017.041c-.065.027-.13.061-.196.094-.198.101-.4.205-.62.157a1.79 1.79 0 0 1-.289-.089c-.135-.05-.268-.1-.413-.1-.34 0-.466.234-.595.473-.088.163-.177.328-.335.423m-.02-.037a.712.712 0 0 1-.598.06m.598-.06h.001l.022.039m-.023-.039h-.001l.023.038m-.62.022c-.056-.023-.11-.048-.164-.073-.054-.025-.109-.051-.166-.074a1.163 1.163 0 0 0-.369-.092h-.003c-.229 0-.458.08-.666.152a1.769 1.769 0 0 1-.067.023h-.001l-.078.03a2.034 2.034 0 0 1-.26.087.45.45 0 0 1-.311-.019m2.085-.034h.001l-.017.041m.016-.041h-.001l-.015.042m-2.068-.008c-.049-.028-.099-.038-.15-.031s-.098.031-.143.066c-.766.594-1.029 1.553-1.094 2.454-.012.195-.015.39-.016.585m1.403-3.074.001.001-.022.039m.021-.04h-.001l-.02.04m-1.382 3.035a2.015 2.015 0 0 0-.261-.575l-.001-.001c-.285-.404-.763-.64-1.261-.409m1.523.985v.202l-.004-.03a2.006 2.006 0 0 0-.294-.724c-.277-.393-.734-.613-1.207-.393m1.505.945c.015.055.028.11.039.165v.002l.005.033c0-.261 0-.521.016-.782.065-.897.326-1.84 1.077-2.422.082-.063.163-.079.245-.031m-2.906 2.05a1.29 1.29 0 0 0-.113.055l-.029.015a.544.544 0 0 1-.122.052m.264-.122.001-.001.016.042m-.017-.041-.001.001.019.04m-.282.082c-.033-.001-.063-.017-.101-.043l-.017-.012c-.034-.023-.075-.052-.122-.068m.24.123h.004v.045m-.004-.045-.004.001.008.044m-.245-.168c-.17-.072-.335.004-.454.12a.42.42 0 0 0-.054.072l-.012.018c-.016.024-.033.051-.052.076a.518.518 0 0 1-.088.095m.66-.381.002.001-.018.041m.016-.042-.002-.001-.014.042m-.644.34-.003-.013a.294.294 0 0 1-.009-.058v-.004l-.001-.004v-.002a1.79 1.79 0 0 0-.067-.289l-.001-.002c-.158-.407-.662-.535-1.037-.387m1.118.759a.056.056 0 0 1-.024.01l-.019.001a.379.379 0 0 1-.014-.082 1.805 1.805 0 0 0-.065-.283c-.147-.378-.62-.503-.979-.362m1.101.716.005.016.002.005c.001.002.001.001.002.001l.007.006c.003.003.005.005.007.01a.679.679 0 0 0 .155-.186.797.797 0 0 1 .059-.082c.114-.11.261-.173.408-.11M17.14 4.62c-.257.099-.427.297-.559.504m.559-.504.016.042m-.016-.042.016.041m-.575.464-.004.006m.004-.006v-.001l.037.025m-.037-.024v.001l.038.024m-.042-.019-.001-.002v-.001c-.106-.195-.306-.316-.518-.349s-.438.02-.597.181m1.116.171-.028.045-.013-.026c-.196-.362-.751-.456-1.044-.157m1.085.138c.007.014.015.03.022.048l.019-.029m-1.157-.189a.217.217 0 0 0-.07.177c.005.06.034.116.076.158.084.083.229.119.348.014l.001-.001c.038-.037.094-.054.152-.051s.11.027.142.063m-.649-.36.031.032m-.031-.032.032.031m.617.328a.422.422 0 0 1 .071.189l.007.032c.019.084.046.178.143.244.19.128.411.032.533-.119l.003-.004a1.722 1.722 0 0 0 .11-.205c.019-.039.037-.076.057-.113a.67.67 0 0 1 .212-.252l.001-.001c.057-.042.142-.07.228-.072s.164.023.218.081m-1.583.22v-.001l.035-.028m-.035.029v.001l.034-.029m1.55-.192c.048.061.067.14.084.232l.006.034c.014.08.029.169.068.245l.002.003c.057.093.126.154.202.187s.158.036.236.02a.827.827 0 0 0 .415-.262M17.694 5.1l-.001-.001.035-.028m-.034.029.001.001.033-.03m.978.487a.457.457 0 0 0 .071-.089l.017-.021m-.088.11-.001.001-.031-.032m.032.031.001-.001-.033-.03m.12-.079.017.012.001.001c.017.012.03.022.044.035l.003.003.004.002c.218.14.452.05.644-.028.115-.048.211-.084.303-.091a.385.385 0 0 1 .274.086l.001.001c.215.148.326.402.39.651v.001c.019.064.031.139.045.221l.002.013c.014.085.03.176.055.262.051.172.144.332.354.384m-2.137-1.553a.188.188 0 0 1 .033-.031l.01.007c.016.012.033.024.049.039.196.126.408.047.604-.031.228-.094.408-.157.62 0 .228.157.343.425.408.676.019.067.032.144.046.225.043.26.092.553.379.625m-2.149-1.51a.292.292 0 0 1-.034-.029l-.036.046a.44.44 0 0 1-.05.061m2.257 1.476c.116.03.21.015.284-.035a.417.417 0 0 0 .148-.211c.06-.168.064-.379.064-.505 0-.512.004-1.085.123-1.614.111-.495.323-.948.722-1.274m-1.341 3.639.011-.043m-.011.043.011-.043m1.33-3.597c.23.064.443.023.648-.044.074-.024.149-.052.224-.081.05-.019.1-.038.149-.055.124-.044.249-.081.379-.096m-1.4.276.044-.035c.285.067.544-.031.81-.131.174-.066.352-.133.541-.155m-1.395.321a.998.998 0 0 1-.051-.016c-.824.695-.839 1.923-.839 2.904 0 .252-.016.818-.441.708m2.731-3.872c.141-.014.269.039.408.106l.044.021c.123.06.256.125.403.14m-.855-.267-.005-.044m.005.044-.005-.044m.86.311c.289.033.576-.049.811-.195l.001-.001c.242-.16.337-.361.445-.588l.043-.09v-.001c.037-.078.082-.114.13-.129a.34.34 0 0 1 .183.007c.069.018.141.048.216.079l.008.003c.076.031.155.063.229.08m-2.066.835.005-.044m-.005.044.005-.044m2.062-.79c.36.083.667-.067.96-.224m-.96.224.01-.043m-.01.043.01-.043m.95-.181c.107-.047.256-.111.395-.132.14-.021.254.004.314.113l.001.001c.042.071.123.108.2.11s.162-.031.204-.112c.032-.062.075-.097.122-.115s.105-.021.166-.009a.66.66 0 0 1 .325.181m-1.727-.037-.001.001-.018-.041m.019.04.001-.001-.021-.039m1.746.078.033-.03m-.033.03.032-.031m.001 0c-.163-.173-.538-.33-.685-.047-.065.126-.261.11-.326 0a.263.263 0 0 0-.089-.097h-.017l.004-.008c-.185-.103-.491.027-.665.105m-.001 0c-.294.157-.587.299-.93.22m0 0c-.072-.016-.151-.049-.231-.081-.227-.093-.465-.191-.585.066l-.044.091c-.108.227-.199.417-.429.57-.228.142-.506.22-.783.189m0-.001a1.165 1.165 0 0 1-.389-.136c-.154-.075-.305-.149-.476-.131m-4.993 2.485c-.212.236-.571.409-.783.063a.758.758 0 0 1-.063-.231c-.018-.104-.036-.208-.1-.288m-.001 0c-.131-.142-.375-.11-.506-.016-.145.097-.214.238-.284.382-.033.067-.066.135-.107.2-.114.142-.31.22-.473.11-.092-.062-.111-.154-.131-.248a.456.456 0 0 0-.081-.208m0 0c-.082-.094-.261-.11-.359-.016-.196.173-.473-.11-.294-.283m1.126.158c.131-.204.294-.393.538-.488m1.746.377a.416.416 0 0 1 .111.062c.047.033.093.064.15.064m0 0a.737.737 0 0 0 .169-.073c.038-.02.076-.04.108-.053m2.889-2.092c.188.097.414.01.61-.066l.075-.029.066-.023c.209-.073.43-.15.652-.15.196.012.355.086.519.162.054.025.109.051.166.074m.001.001a.753.753 0 0 0 .636-.063m-6.821 2.58.021-.022a.034.034 0 0 1 .006.015v.001a.07.07 0 0 1-.028.006zm0 0 .014-.03-.007-.005-.005-.003h-.003c-.002 0 0 0 0 0l-.006.001c-.003 0-.005.002-.009.004.005.015.01.027.015.032zm14.758 2.018a.597.597 0 0 0 .069-.424m-.069.424.069-.424m0 0v-.001m0 .001v-.001m0 0a.567.567 0 0 0-.106-.205m.106.205-.106-.205m0 0a.376.376 0 0 0-.1-.086m.1.086-.1-.086m0 0-.019-.012m.019.012-.019-.012m0-.001c-.026-.017-.048-.031-.065-.048m.065.048-.065-.048m0 .001c-.012-.012-.019-.033-.023-.069m.023.069-.023-.069m0 0a4.416 4.416 0 0 1-.003-.034m.003.034-.003-.034m0 0-.002-.021m.002.021-.002-.021m.001 0c-.002-.019-.004-.04-.009-.059m.009.059-.009-.059m0-.001a.417.417 0 0 0-.11-.194m.11.194-.11-.194m0 0a.569.569 0 0 0-.459-.138l.459.138zm-2.686-.154a.325.325 0 0 1-.003.014l-.012-.011.014-.003zm.301.307.036-.008-.009.034-.027-.026zm.107-.343a.738.738 0 0 0-.046.008l.006-.046a.634.634 0 0 1 .046-.007l-.006.046zm-1.913-4.242-.038.028.039.026.038-.027a.55.55 0 0 0-.039-.028zm1.71 2.958.042-.016-.017-.041-.042.016.017.041zm.687-.822c-.016-.204-.147-.346-.31-.456l.31.456zm-9.872 2.641.002-.001-.001.004c-.001.002-.001.002-.001 0-.002 0-.002-.001 0-.002zM18.792 5.39l-.001-.001.015.013a.042.042 0 0 1-.015-.012zm10.51-3.551-.021.039.021-.039zm2.35 4.463.011.043-.01-.043z" style="fill:var(--color1, #fff)"/><path fill="#fff" d="m14.687 4.775-.021-.001h-.001a.085.085 0 0 1-.024-.009.113.113 0 0 1-.04-.045c-.045-.085-.148-.115-.234-.106s-.18.061-.192.167a.591.591 0 0 1-.039.129.315.315 0 0 0-.019-.015c-.211-.186-.457-.183-.703-.151-.114.016-.211.012-.277-.038a.452.452 0 0 1-.094-.11l-.022-.034a1.054 1.054 0 0 0-.071-.1c-.163-.219-.388-.291-.615-.363l-.043-.014h-.001a16.984 16.984 0 0 0-3.665-.631h-.001c-.604-.031-1.226-.047-1.831-.031-.443.016-.926.095-1.311.337a1.282 1.282 0 0 0-.501.578l-.018.042-.044.099c-.022.046-.045.088-.07.122s-.051.057-.078.068l-.002.001a.121.121 0 0 1-.102.002c-.029-.011-.055-.027-.086-.045l-.032-.019-.003-.001a.805.805 0 0 0-.346-.083h-.004a.601.601 0 0 0-.477.323c-.12.231-.136.505-.105.773s.11.535.183.756v.001c.169.475.434.916.785 1.292a.52.52 0 0 0-.086.282c0 .153.062.284.125.404l.023.043c.057.106.11.205.13.316v.002c.031.133.014.274-.071.369a.237.237 0 0 1-.149.082.803.803 0 0 1-.09.007h-.01c-.029.001-.062.002-.096.006a.618.618 0 0 0-.419.172 2.174 2.174 0 0 0-.21.228c-.029.035-.058.07-.087.102-.229.26-.457.523-.685.787a110.3 110.3 0 0 1-.685.786v.001c-.07.083-.147.167-.224.253-.126.14-.257.285-.374.434-.191.244-.355.51-.422.81-.131.542.025 1.082.239 1.584l-.077-.008-.032-.004a.67.67 0 0 0-.174-.002l-.004.001c-.156.035-.254.146-.325.269a1.736 1.736 0 0 0-.09.191l-.026.064c-.016.04-.031.079-.047.114-.073.164-.15.325-.228.486-.077.161-.155.322-.229.488-.024.049-.053.102-.084.159l-.016.029a3.5 3.5 0 0 0-.109.212c-.066.146-.116.305-.089.461.027.158.144.289.272.398a3.474 3.474 0 0 0 .227.174c.056.041.109.079.153.116.138.11.277.224.415.338.139.114.278.228.417.339l.018.014c.19.153.424.341.709.357.258.017.503-.083.644-.304l.001-.002a.212.212 0 0 0 .016-.182c-.02-.054-.062-.098-.11-.126s-.107-.042-.164-.032a.205.205 0 0 0-.146.108l-.001.001c-.023.044-.05.069-.08.083s-.067.018-.112.012a.828.828 0 0 1-.311-.141 3.375 3.375 0 0 1-.319-.248l-.107-.094a2.556 2.556 0 0 0-.114-.098l-.31-.252h-.001a43.538 43.538 0 0 1-.309-.251 1.812 1.812 0 0 0-.11-.079l-.051-.035a.511.511 0 0 1-.124-.113c-.037-.054-.033-.111-.009-.178.012-.034.029-.067.047-.102l.004-.009c.015-.03.032-.062.044-.093.148-.296.29-.592.433-.893l.235-.49c.009-.018.019-.043.029-.067l.001-.003c.01-.025.02-.051.032-.075a.432.432 0 0 1 .035-.063l.015-.017c.004-.004.005-.004.006-.004l.003-.001s.007 0 .02.004a.319.319 0 0 1 .05.021l.052.029.006.004.034.019.003.001c.084.032.163.054.243.056s.162-.015.249-.057c.129-.062.141-.22.086-.327-.155-.322-.307-.671-.367-1.022-.06-.35-.027-.7.185-1.026a5.64 5.64 0 0 1 .588-.709l.11-.119.001-.001c.261-.299.522-.598.767-.897.261-.299.522-.598.767-.897l.001-.001.03-.04c.017-.023.034-.047.054-.07.032-.036.06-.057.085-.062l.004-.001.004-.001a.283.283 0 0 1 .121-.009l.047.004c.036.004.074.008.109.008h.006a.712.712 0 0 0 .365-.151c.26-.201.344-.501.31-.81a1.216 1.216 0 0 0-.168-.489l-.018-.032a.995.995 0 0 1-.071-.146.172.172 0 0 1-.014-.08c.001-.008.004-.012.006-.014s.007-.006.018-.008c.093-.02.153-.094.174-.173s.009-.171-.055-.233a3.087 3.087 0 0 1-.756-1.101v-.001c-.073-.18-.15-.39-.198-.603s-.067-.426-.028-.614v-.001c.016-.086.039-.138.068-.163.024-.02.065-.03.148.006l.006.003c.175.077.37.162.583.076.193-.076.302-.221.387-.371l.074-.139.046-.087a1.21 1.21 0 0 1 .131-.202l.001-.001c.107-.133.262-.224.437-.287s.367-.098.545-.122c.487-.047.974-.047 1.446-.031 1.09.031 2.181.173 3.255.408.294.063.586.126.862.204l.093.022.013.003.081.019a.545.545 0 0 1 .16.061c.071.045.112.108.161.182l.039.057.001.001c.135.179.308.315.554.332a.99.99 0 0 0 .204-.002l.04-.004c.052-.005.101-.01.151-.01.011 0 .072.007.127.022a.265.265 0 0 1 .055.021.212.212 0 0 0 .05.26.253.253 0 0 0 .277.039.809.809 0 0 0 .367-.329.671.671 0 0 0 .217.035.63.63 0 0 0 .407-.184l.022-.02a.346.346 0 0 1 .08-.057l.005.012a2.668 2.668 0 0 1 .024.074.543.543 0 0 0 .027.072l.002.004.002.003c.054.07.127.122.215.156l.004.001c.093.027.184.014.255-.033s.118-.127.128-.226v-.008c-.011-.116-.117-.18-.211-.193a.251.251 0 0 0-.055-.002.445.445 0 0 0-.032-.088.382.382 0 0 0-.128-.157.392.392 0 0 0-.31-.07l-.004.001a.633.633 0 0 0-.167.086l-.051.034c-.041.027-.081.054-.121.077a.35.35 0 0 1-.144.054z" style="fill:var(--color1, #fff)"/><path fill="#fff" d="M2.634 18.127c0-.016-.016-.016-.033-.016.016.016.049.016.065.016h.016c-.033 0-.065-.016-.082-.016.016.016.033.032.049.032h.098c.016 0 .016 0 .033-.016-.016 0-.016 0-.033.016h.016c.016 0 .016 0 .033-.016.016 0 .016-.016.033-.032s.033-.047.016-.063c0-.016 0-.032-.016-.047 0-.016-.016-.016-.033-.032s-.016-.016-.033-.016h-.049c-.016 0-.049 0-.065.016 0 0-.016 0-.016.016-.016 0-.016.016-.033.016a.12.12 0 0 0-.033.079c.016-.016.016-.047.033-.063l-.033.032c-.017.016-.016.047-.016.063v-.047c-.016.016-.016.031-.016.047s0 .047.016.063h.033c.016-.016.033-.016.049-.032z" style="fill:var(--color1, #fff)"/><path fill="#fff" d="M2.634 18.171a.066.066 0 0 0 .032-.008.09.09 0 0 0 .015-.012c.003-.003.001-.001-.002.001a.033.033 0 0 1-.013.004v-.089a.066.066 0 0 0-.032.008.056.056 0 0 0-.015.012c-.003.003-.001.001.002-.001a.033.033 0 0 1 .013-.004v.089zm0-.044.062.064.027-.026v-.038h-.089zm-.033-.016v-.089H2.38l.159.153.062-.064zm.18.016.062.064.159-.153h-.221v.089zm.016 0v-.089h-.036l-.026.025.062.064zm.049-.095h-.089v.038l.027.026.062-.064zm-.017-.047H2.74v.038l.027.026.062-.064zm-.179-.031v.089h.036l.026-.025-.062-.064zm-.016.015v.089h.089v-.089h-.089zm-.033.016v-.089h-.036l-.026.025.062.064zm-.033.079h-.089v.21l.151-.146-.062-.064zm-.016-.016h.089v-.21l-.151.146.062.064zm0 .11-.062.064.026.025h.036v-.089zm.033 0v.089h.036l.026-.025-.062-.064zm.138-.031a.103.103 0 0 0-.072-.099c-.022-.007-.046-.006-.05-.006v.178h.007-.003a.08.08 0 0 1-.043-.026.08.08 0 0 1-.017-.047h.178zm-.184.048a.15.15 0 0 0 .08.038c.02.003.039.003.047.003v-.178h-.011l-.008-.001h.001c.002 0 .008.003.014.01l-.124.128zm.127.041h.016v-.178h-.016v.178zm.017-.178a.092.092 0 0 1-.023-.005l-.022-.006a.142.142 0 0 0-.037-.005v.178c-.008 0-.012-.002-.007 0l.018.005c.015.004.041.011.071.011v-.178zm-.144.137c.007.007.02.019.034.03s.04.027.077.027v-.178c.01 0 .018.003.022.004s.006.003.005.003l-.005-.004-.01-.01-.124.128zm.111.057v-.178.178zm.033 0h.016v-.178h-.016v.178zm.016 0v-.178.178zm.033 0h.016v-.178h-.016v.178zm.016 0 .018-.001a.103.103 0 0 0 .063-.028l.013-.012-.124-.128-.005.005-.001.001.003-.003a.029.029 0 0 1 .01-.006c.01-.005.018-.006.024-.007h.003-.004v.178zm.033-.194-.018.001a.103.103 0 0 0-.063.028l-.013.012.124.128.005-.005.001-.001-.003.003a.029.029 0 0 1-.01.006c-.01.005-.018.006-.024.007h-.003.004v-.178zm-.033.194h.016v-.178h-.016v.178zm.016 0 .018-.001a.103.103 0 0 0 .063-.028l.013-.012-.124-.128-.005.005-.001.001.003-.003a.029.029 0 0 1 .01-.006c.01-.005.018-.006.024-.007h.003-.004v.178zm.033-.016c.02 0 .041-.005.06-.018.017-.011.026-.025.03-.03l.005-.008-.124-.128c-.01.009-.016.018-.021.025l-.005.008-.001.002.004-.005a.081.081 0 0 1 .034-.021.074.074 0 0 1 .019-.003v.178zm.094-.056a.169.169 0 0 0 .043-.067.12.12 0 0 0-.026-.125l-.124.128a.068.068 0 0 1-.02-.041.042.042 0 0 1 .002-.02l.002-.004.124.128zm.044-.128c0-.018.001-.068-.044-.111l-.124.128-.006-.007a.021.021 0 0 1-.004-.011l-.001-.005v.006h.178zm-.016-.047a.104.104 0 0 0-.02-.062c-.012-.016-.026-.025-.031-.029l-.009-.005-.124.128c.01.009.019.016.026.02l.008.005.002.001-.005-.004-.012-.012c-.005-.005-.008-.014-.011-.022a.088.088 0 0 1-.003-.021h.178zm-.06-.095-.013-.012c-.005-.004-.014-.012-.026-.018a.103.103 0 0 0-.037-.01l-.018-.001v.178h.004-.003a.06.06 0 0 1-.024-.007l-.01-.006-.003-.003.001.001.005.005.124-.128zm-.095-.041v.178-.178zm-.049 0c-.025 0-.081-.004-.127.041l.124.128a.026.026 0 0 1-.009.006l-.01.003h.022v-.178zm-.065.105v-.089h-.007l-.01.001a.101.101 0 0 0-.088.103h.178a.075.075 0 0 1-.042.067c-.008.004-.015.005-.019.006l-.006.001h-.005c-.001 0 0 0 0 0v-.089zm-.016-.074c-.009 0-.019.001-.029.004s-.018.006-.026.011c-.013.008-.023.018-.024.018-.003.003.002-.003.011-.008l.017-.007c.006-.002.013-.002.018-.002v.178c.009 0 .019-.001.029-.004s.018-.006.026-.011a.166.166 0 0 0 .024-.018c.003-.003-.002.003-.011.008l-.017.007c-.006.002-.013.002-.018.002v-.178zm-.095.041a.207.207 0 0 0-.06.143h.178v-.003l.002-.006.003-.005c.001-.001.001-.001 0 0l-.124-.128zm.091.207a.158.158 0 0 0 .038-.066l.002-.007.001-.002s-.003.006-.009.012l-.124-.128a.158.158 0 0 0-.038.066l-.002.007-.001.002s.003-.006.009-.012l.124.128zm-.091-.191-.016.016-.016.016.124.128.016-.016.016-.016-.124-.128zm-.032.031a.141.141 0 0 0-.04.08c-.003.02-.003.039-.003.047h.178v-.01l.001-.006-.001.002c-.001.002-.004.009-.011.015l-.124-.128zm.134.127h-.178.178zm-.151-.111c-.045.043-.044.094-.044.111h.178v-.006l-.001.005-.004.011c-.002.004-.004.006-.006.007l-.124-.128zm-.043.111c0 .007 0 .026.003.047a.145.145 0 0 0 .04.08l.124-.128c.007.006.01.012.011.015l.001.002-.001-.006v-.01h-.178zm.105.152v-.178.178zm.095-.025c-.003.003-.007.004.001 0s.028-.013.048-.032l-.124-.128c.003-.003.007-.004-.001 0s-.028.013-.048.032l.124.128z" style="fill:var(--color1, #fff)"/><path fill="#fff" d="m3.013 18.318.001.001a.106.106 0 0 1 .012.01c.093.075.21.169.346.203a.53.53 0 0 0 .423-.034l.068-.03c.083-.038.138-.063.225-.032l.002.001c.091.027.17.066.25.105l.097.046a.795.795 0 0 0 .385.087c.037 0 .074-.009.105-.016l.002-.001a.389.389 0 0 1 .088-.014c.047 0 .081.013.115.032l.042.025.015.009a.647.647 0 0 0 .07.039l.002.001c.121.05.243.067.366.05.057-.008.114-.022.168-.035a.31.31 0 0 1 .312-.024c.04.014.079.041.115.089.047.062.085.126.123.191l.042.069c.054.088.114.175.2.25.211.186.506.201.746.103.142-.046.269-.134.376-.208l.025-.017.038-.026c.1-.067.208-.139.256-.279a.161.161 0 0 0-.034-.166.21.21 0 0 0-.153-.066.402.402 0 0 0-.236.056 1.374 1.374 0 0 0-.188.135l-.009.008c-.129.104-.246.193-.396.179h-.001c-.094-.006-.161-.064-.219-.148a1.275 1.275 0 0 1-.079-.136l-.012-.022c-.021-.039-.041-.079-.063-.113l-.001-.001c-.118-.178-.274-.332-.521-.366a.718.718 0 0 0-.191.004 2.592 2.592 0 0 0-.093.014l-.008.001-.079.012h-.002l-.053.011a.688.688 0 0 1-.141.02.289.289 0 0 1-.166-.056l-.001-.001c-.067-.04-.128-.07-.195-.088s-.138-.021-.223-.013a3.689 3.689 0 0 0-.092.012.567.567 0 0 1-.28-.009 2.372 2.372 0 0 1-.161-.078l-.015-.008a2.12 2.12 0 0 0-.151-.075.627.627 0 0 0-.38-.06.526.526 0 0 0-.178.07l-.015.009a.662.662 0 0 1-.136.064.327.327 0 0 1-.203-.04c-.035-.017-.069-.037-.104-.057l-.004-.002c-.033-.019-.067-.039-.1-.055a.897.897 0 0 0-.336-.099.323.323 0 0 0-.309.163l-.001.002a.1.1 0 0 0 0 .092.097.097 0 0 0 .088.052c.168 0 .305.058.428.163z" style="fill:var(--color1, #fff)"/><path fill="#fff" d="m7.866 18.972.003-.001.003-.001a2.92 2.92 0 0 1 .82-.217h.001c.109-.012.215-.02.322-.027l.084-.006c.135-.01.271-.022.412-.046.476-.079.969-.255 1.191-.7l.001-.002c.013-.028.024-.058.035-.086l.034-.083a.422.422 0 0 1 .084-.132l.002-.003c.038-.043.085-.056.145-.06.026-.002.053-.001.082-.001h.015c.033 0 .068.001.103-.003a.649.649 0 0 0 .348-.101l.001-.001a.638.638 0 0 0 .142-.148l.007-.009a.432.432 0 0 1 .125-.124.513.513 0 0 1 .175-.052c.039-.006.076-.009.114-.013l.086-.009c.166-.016.315-.048.48-.096a6.7 6.7 0 0 0 .181-.049c.246-.068.478-.132.733-.107h.001c.349.023.656.161.951.334.126.074.249.154.373.235l.063.041c.144.094.29.186.438.266l.002.001c.086.041.17.01.214-.049s.051-.146-.016-.211c-.413-.445-1.007-.828-1.62-.972a2.137 2.137 0 0 0-.899-.048h-.001a4.164 4.164 0 0 0-.41.099l-.11.03a2.378 2.378 0 0 1-.519.091c-.159.008-.284.037-.395.093s-.205.14-.304.252a.274.274 0 0 1-.161.096.81.81 0 0 1-.095.009l-.02.001c-.03.001-.064.002-.101.006a.57.57 0 0 0-.368.119.833.833 0 0 0-.237.318l-.019.038a1.115 1.115 0 0 1-.173.278l-.001.001c-.169.193-.417.269-.678.332-.14.027-.294.04-.456.054l-.03.003a5.618 5.618 0 0 0-.462.05c-.325.052-.64.156-.854.427a.091.091 0 0 0-.029.083c.005.03.025.052.044.066s.044.026.068.032a.163.163 0 0 0 .076.002zm36.32-3.644-.002.005-.001.006c-.016.204-.033.409-.049.629v.003c0 .045-.004.094-.008.146v.001a1.96 1.96 0 0 0-.008.152c0 .021-.002.044-.004.069a.945.945 0 0 0-.004.078c0 .054.009.113.051.164l.004.003c.019.018.043.024.064.024s.045-.006.064-.024c.045-.043.058-.104.062-.158a1.07 1.07 0 0 0 .001-.113l-.001-.044v-.922c.005-.022.001-.045-.016-.063s-.04-.023-.057-.023a.1.1 0 0 0-.095.065z" style="fill:var(--color1, #fff)"/><path fill="#fff" d="m44.388 16.314.002.003.002.002a.126.126 0 0 0 .086.036.092.092 0 0 0 .08-.044.218.218 0 0 0 .042-.126v-.073l-.001-.045v-.22c0-.08-.004-.156-.008-.23v-.001c-.004-.075-.008-.148-.008-.226 0-.028-.011-.053-.031-.069s-.042-.023-.063-.023c-.021 0-.044.007-.063.023s-.03.039-.031.067l-.004.038a3.898 3.898 0 0 0-.029.421c0 .037-.004.074-.008.111l-.001.007a.905.905 0 0 0-.007.102l-.001.045v.012a.62.62 0 0 0 0 .061.22.22 0 0 0 .044.129zM30.38 5.676c.017-.019.027-.04.033-.063s.005-.047.005-.068v-.16c0-.045.004-.094.008-.146v-.001c.004-.05.008-.102.008-.15a8.11 8.11 0 0 0 .016-.63v-.012l-.005-.01a.09.09 0 0 0-.078-.048c-.015 0-.032.004-.047.016s-.024.03-.024.05c-.016.204-.033.41-.033.616 0 .045-.004.094-.008.146v.001a1.96 1.96 0 0 0-.008.152v.157l-.002.031v.001a.411.411 0 0 0-.002.036c0 .024.004.054.025.08a.056.056 0 0 0 .021.024c.012.008.025.01.035.01s.023-.002.035-.01a.05.05 0 0 0 .02-.023zM4.091 6.77v.003l.024.362.024.362V7.5c.008.061.012.119.016.178v.001c.004.059.008.119.017.183v.001a1.006 1.006 0 0 1 .009.09l.006.072a.362.362 0 0 0 .054.164.05.05 0 0 0 .023.028c.012.008.025.01.035.01s.023-.002.035-.01a.056.056 0 0 0 .025-.038c.034-.118.016-.235.001-.341l-.001-.004a2.799 2.799 0 0 1-.016-.178v-.001c-.004-.058-.008-.118-.016-.182a8.464 8.464 0 0 0-.033-.354c-.012-.118-.024-.235-.032-.352v-.006l-.002-.006a.095.095 0 0 0-.089-.065c-.019 0-.039.006-.054.021s-.025.037-.025.059zm.283.404-.005.01v.012c0 .203 0 .393.016.599 0 .189.016.396.066.588.002.018.013.031.025.039s.025.01.035.01c.01 0 .023-.002.035-.01s.024-.022.025-.041c.025-.146.022-.302.019-.449l-.002-.138V7.79a6.445 6.445 0 0 1-.012-.193 3.864 3.864 0 0 0-.037-.408l-.001-.007-.003-.006c-.017-.033-.05-.048-.08-.048s-.063.015-.08.048zm16.698 10.782-2.341-7.467h.641c.065 0 .103.016.128.035l.004.003c.035.025.05.05.058.079l.001.004.001.004 1.623 5.434c.024.093.047.194.068.303l.001.003.001.003c.025.109.048.226.069.351l.349.005c.025-.125.05-.243.075-.354.028-.112.058-.211.088-.3v-.001l1.848-5.435a.213.213 0 0 1 .071-.09l.001-.001a.181.181 0 0 1 .122-.041h.307c.065 0 .099.016.119.031.033.027.058.06.077.104l1.842 5.433c.031.088.058.184.083.288l.001.003.001.003c.028.106.055.218.08.335l.35-.01c.018-.118.038-.229.059-.336.021-.105.044-.202.068-.292l1.63-5.438a.165.165 0 0 1 .06-.083.194.194 0 0 1 .125-.038h.586l-2.341 7.467h-.696l-1.95-5.843-.052-.174a9.807 9.807 0 0 0-.049-.207h-.345a8.17 8.17 0 0 1-.107.381l-1.961 5.843h-.696z" style="fill:var(--color1, #fff)"/></symbol><symbol id="icon-Star-4" viewBox="0 0 35 32"><path fill="#ae990b" d="m17.455 0 4.617 11.1 11.984.961-9.13 7.821 2.789 11.694-10.259-6.266-10.26 6.266 2.789-11.694-9.13-7.821 11.983-.961L17.455 0z" style="fill:var(--color2, #ae990b)"/></symbol><symbol id="icon-face_4" viewBox="0 0 32 32"><path fill="#fff" d="M12 21.667c-.467 0-.861-.161-1.183-.483s-.483-.717-.483-1.183c0-.467.161-.861.483-1.183s.717-.483 1.183-.483c.467 0 .861.161 1.183.483s.483.717.483 1.183c0 .467-.161.861-.483 1.183s-.717.483-1.183.483zm8 0c-.467 0-.861-.161-1.183-.483s-.483-.717-.483-1.183.161-.861.483-1.183c.322-.322.717-.483 1.183-.483s.861.161 1.183.483c.322.322.483.717.483 1.183s-.161.861-.483 1.183a1.61 1.61 0 0 1-1.183.483zm-4 7.666c2.978 0 5.5-1.033 7.567-3.1s3.1-4.589 3.1-7.567c0-.533-.033-1.05-.1-1.55s-.189-.983-.367-1.45c-.467.111-.933.194-1.4.25s-.955.083-1.467.083c-2.022 0-3.933-.433-5.733-1.3s-3.333-2.078-4.6-3.633c-.711 1.733-1.728 3.239-3.05 4.517s-2.861 2.239-4.617 2.883v.2c0 2.978 1.033 5.5 3.1 7.567s4.589 3.1 7.567 3.1zm-3.056-20.91c1.087 2.171 2.623 3.754 4.608 4.75s3.912 1.494 5.782 1.494c.414 0 .821-.021 1.221-.063s.798-.111 1.195-.206c-.848-1.983-2.161-3.545-3.941-4.686S18.094 8 16.001 8c-.585 0-1.12.034-1.605.101s-.969.175-1.451.322zm-7.428 8.518c1.373-.61 2.763-1.61 4.172-3s2.23-3.137 2.464-5.241c-1.783.679-3.259 1.747-4.428 3.205s-1.905 3.137-2.208 5.036zm-.949-1.662c.485-1.776 1.337-3.341 2.555-4.696s2.689-2.36 4.414-3.017c-.48-.603-1.076-1.092-1.787-1.467s-1.496-.562-2.355-.562c-1.481 0-2.733.512-3.756 1.537s-1.535 2.279-1.535 3.763c0 .934.226 1.788.677 2.561s1.047 1.4 1.787 1.88zm11.438 15.388c-1.659 0-3.22-.315-4.68-.945s-2.732-1.485-3.812-2.565c-1.081-1.08-1.936-2.35-2.566-3.81s-.946-3.02-.946-4.68c0-.35.015-.698.044-1.042s.081-.677.156-.999c-1.041-.561-1.873-1.354-2.496-2.38S.77 12.084.77 10.839c0-1.844.644-3.411 1.933-4.7s2.856-1.933 4.7-1.933c1.127 0 2.163.262 3.109.786s1.719 1.226 2.319 2.106c.509-.144 1.03-.251 1.561-.323s1.067-.108 1.608-.108c1.66 0 3.22.315 4.68.945s2.73 1.484 3.81 2.564 1.935 2.349 2.565 3.809.945 3.019.945 4.678c0 1.659-.315 3.219-.945 4.68s-1.484 2.732-2.564 3.812c-1.08 1.081-2.349 1.936-3.809 2.567s-3.019.945-4.678.945z" style="fill:var(--color1, #fff)"/></symbol><symbol id="icon-ticket-blank-svgrepo-com" fill="none" viewBox="0 0 24 24"><path fill="#fff" d="M22.5 10.313c.31 0 .563-.253.563-.563V6a.563.563 0 0 0-.563-.563h-21A.563.563 0 0 0 .937 6v3.75c0 .31.252.563.563.563a1.687 1.687 0 1 1 0 3.374.563.563 0 0 0-.563.563V18c0 .31.252.563.563.563h21c.31 0 .563-.252.563-.563v-3.75a.563.563 0 0 0-.563-.563 1.687 1.687 0 1 1 0-3.374Zm-.563 4.442v2.682H2.063v-2.682A2.818 2.818 0 0 0 4.313 12a2.814 2.814 0 0 0-2.23-2.752l-.019-.003V6.563h19.875v2.682A2.818 2.818 0 0 0 19.688 12c0 1.354.957 2.485 2.232 2.752l.017.003Z"/></symbol><symbol id="icon-id-card-svgrepo-com" viewBox="0 0 32 32"><path fill="#fff" d="M28 5.25H4A2.754 2.754 0 0 0 1.25 8v16A2.754 2.754 0 0 0 4 26.75h24A2.754 2.754 0 0 0 30.75 24V8A2.754 2.754 0 0 0 28 5.25zM4 6.75h24c.69.001 1.249.56 1.25 1.25v1.25H2.75V8c.001-.69.56-1.249 1.25-1.25zm24 18.5H4A1.252 1.252 0 0 1 2.75 24V10.75h26.5V24A1.252 1.252 0 0 1 28 25.25zM9.645 17.628a2.635 2.635 0 1 0 0-5.27 2.635 2.635 0 0 0 0 5.27zm0-3.77a1.135 1.135 0 1 1 0 2.27 1.135 1.135 0 0 1 0-2.27zm0 4.953a4.547 4.547 0 0 0-4.41 3.52l-.006.031a.75.75 0 0 0 1.464.325l.001-.005c.309-1.366 1.512-2.371 2.951-2.371s2.642 1.005 2.947 2.351l.004.02a.751.751 0 0 0 1.464-.326l.001.005a4.553 4.553 0 0 0-4.414-3.551h-.001l-.001.001zM26 13.25h-8a.75.75 0 0 0 0 1.5h8a.75.75 0 0 0 0-1.5zm0 4h-8a.75.75 0 0 0 0 1.5h8a.75.75 0 0 0 0-1.5zm0 4h-8a.75.75 0 0 0 0 1.5h8a.75.75 0 0 0 0-1.5z" style="fill:var(--color1, #fff)"/></symbol><symbol id="icon-directions_bus" viewBox="0 0 32 32"><path fill="#fff" d="M9.385 26.667c-.189 0-.347-.064-.475-.192s-.192-.286-.192-.475v-2.528c-.434-.188-.885-.589-1.351-1.201s-.7-1.318-.7-2.117V8c0-1.383.749-2.396 2.246-3.037S12.772 4 16 4c3.344 0 5.736.308 7.175.925S25.334 6.567 25.334 8v12.154c0 .798-.233 1.504-.7 2.117s-.917 1.013-1.351 1.201V26c0 .189-.064.347-.192.475s-.286.192-.475.192h-.308c-.189 0-.347-.064-.475-.192s-.192-.286-.192-.475v-2H10.359v2c0 .189-.064.347-.192.475s-.286.192-.475.192h-.308zM8 14.667h16V8.718H8v5.949zm3.339 6.154c.415 0 .765-.145 1.052-.436s.429-.643.429-1.058-.145-.765-.435-1.052c-.29-.286-.643-.429-1.058-.429s-.765.145-1.052.436c-.286.29-.429.643-.429 1.058s.145.765.435 1.052c.29.286.643.429 1.058.429zm9.334 0c.415 0 .765-.145 1.052-.436s.429-.643.429-1.058-.145-.765-.436-1.052c-.29-.286-.643-.429-1.058-.429s-.765.145-1.052.436c-.286.29-.429.643-.429 1.058s.145.765.436 1.052c.29.286.643.429 1.058.429zM8.138 7.385h15.754c-.231-.685-.943-1.199-2.137-1.54s-3.107-.512-5.74-.512c-2.617 0-4.523.173-5.717.519s-1.914.857-2.16 1.532zm2.529 15.282h10.667c.733 0 1.361-.261 1.883-.783s.783-1.15.783-1.883v-4H8v4c0 .733.261 1.361.783 1.883s1.15.783 1.883.783z" style="fill:var(--color1, #fff)"/></symbol><symbol id="icon-telegram-logo" viewBox="0 0 37 32"><path fill="#fff" d="M35.717.767A1.425 1.425 0 0 0 34.27.519L2.271 13.042a2.246 2.246 0 0 0 .384 4.297l8.291 1.628v9.245a2.519 2.519 0 0 0 1.579 2.341 2.517 2.517 0 0 0 2.765-.589l3.998-4.146 6.343 5.552a2.513 2.513 0 0 0 2.448.507 2.512 2.512 0 0 0 1.685-1.837l6.409-27.881a1.415 1.415 0 0 0-.456-1.391zm-9.653 5.684L11.918 16.582l-7.832-1.536 21.977-8.594zm-12.591 21.76v-7.497l3.914 3.433-3.914 4.064zm13.821 1.263L14.239 18.027 33.029 4.56l-5.735 24.914z" style="fill:var(--color1, #fff)"/></symbol><symbol id="icon-facebook-logo" viewBox="0 0 32 32"><path fill="#fff" d="M16 3c-2.571 0-5.085.762-7.222 2.191S4.974 8.65 3.99 11.025a13.004 13.004 0 0 0 2.818 14.167 13.002 13.002 0 0 0 20.001-1.97A13.003 13.003 0 0 0 29 16 13.018 13.018 0 0 0 16 3zm1 23.954V19h3a.997.997 0 0 0 1-1 .997.997 0 0 0-1-1h-3v-3a2 2 0 0 1 2-2h2a.997.997 0 0 0 1-1 .997.997 0 0 0-1-1h-2a4.003 4.003 0 0 0-4 4v3h-3a.997.997 0 0 0-1 1 .997.997 0 0 0 1 1h3v7.954a10.998 10.998 0 0 1-9.989-11.455 10.996 10.996 0 0 1 18.587-7.453 11 11 0 0 1-6.6 18.908z" style="fill:var(--color1, #fff)"/></symbol><symbol id="icon-instagram-logo" viewBox="0 0 32 32"><path fill="#fff" d="M16 10a5.998 5.998 0 0 0-4.242 10.243 5.996 5.996 0 0 0 6.539 1.301 6.004 6.004 0 0 0 3.704-5.543 6.007 6.007 0 0 0-6-6zm0 10a4.002 4.002 0 0 1-3.923-4.78 4.006 4.006 0 0 1 3.143-3.143A3.996 3.996 0 0 1 20 16a4.003 4.003 0 0 1-4 4zm6-17H10a7.005 7.005 0 0 0-7 7v12a7.005 7.005 0 0 0 7 7h12a7.005 7.005 0 0 0 7-7V10a7.005 7.005 0 0 0-7-7zm5 19a5.003 5.003 0 0 1-5 5H10a5.001 5.001 0 0 1-5-5V10a4.997 4.997 0 0 1 5-5h12a5 5 0 0 1 5 5v12zM24 9.5a1.495 1.495 0 0 1-.926 1.385 1.496 1.496 0 0 1-1.635-.326 1.5 1.5 0 1 1 2.56-1.061z" style="fill:var(--color1, #fff)"/></symbol><symbol id="icon-Logo" viewBox="0 0 45 32"><path fill="#fff" d="M13.563 15.779c.048.395.396.594.638.71l.038.02c.125.067.216.115.31.205.035.034.063.065.095.101l.085.093c.069.073.155.152.265.21.239.126.471.061.652-.053l.004.004.006.006a.514.514 0 0 1 .074.097l.013.021c.022.035.051.08.083.119a.78.78 0 0 0 .575.322l.007.001h.007l.026-.001.009-.001.012.052c.026.111.048.203.059.306v.001c.014.118.018.234.02.355l.001.07c.001.096.003.196.009.296a.734.734 0 0 0 .283.596c.073.06.159.102.234.135.036.016.073.031.108.044l.007.003c.038.015.072.029.105.044.141.062.188.11.2.169l.001.005.017.076c.034.157.073.331.222.506l.001.001c.049.057.106.116.158.17l.082.086c.071.078.13.151.174.236l.001.002c.166.309.264.653.363 1.002.034.121.069.242.107.363l.002.005.004.01-.002-.001-.005-.002a.968.968 0 0 0-.393-.088c-.09 0-.16.026-.217.054l-.064.035-.006.004-.017.01-.007-.006a.465.465 0 0 0-.479-.086.682.682 0 0 0-.092.04l-.035.018-.038.019c-.034.017-.048.019-.05.02h-.002c-.009-.001-.012-.003-.013-.004l-.002-.002c-.001-.001-.008-.014-.005-.04v-.002a.294.294 0 0 0-.048-.202.323.323 0 0 0-.14-.113.387.387 0 0 0-.306.001 1.264 1.264 0 0 0-.105.05l-.044-.025-.006.053c-.275.158-.497.4-.606.709-.074.181-.09.373-.073.557.005.06.017.118.026.164v.001c.01.051.018.088.021.122.005.056-.004.08-.034.107-.041.035-.083.064-.13.098l-.052.038c-.066.049-.14.106-.207.179l-.005.006c-.147.177-.217.369-.28.55l-.002.005c-.015.047-.028.096-.042.146a1.949 1.949 0 0 1-.14.395.402.402 0 0 1-.125.153c-.034.021-.079.034-.153.015l-.003-.001a.359.359 0 0 0-.448.346.643.643 0 0 0 .019.179l-.068.052.102.041a.58.58 0 0 0 .064.104.808.808 0 0 0 .271.21c.07.036.148.068.218.096l.062.026c.088.037.156.07.207.108.18.146.379.228.592.23s.417-.074.61-.208c.083-.055.159-.12.227-.178l.027-.024c.06-.052.113-.098.169-.14.124-.092.236-.14.378-.125h.003c.27.025.512.222.544.452v.003a.326.326 0 0 0 .568.165.3.3 0 0 0 .054-.256c-.114-.693-.89-1.15-1.572-.96-.226.064-.396.207-.534.324l-.004.004c-.148.125-.26.218-.398.259l-.004.001c-.057.018-.09.009-.138-.02a1.316 1.316 0 0 1-.104-.075c-.039-.029-.086-.065-.141-.096-.008-.005-.016-.011-.025-.015.107-.095.195-.208.256-.325.084-.151.138-.33.184-.485l.043-.14c.063-.194.135-.342.27-.444l.048-.035c.119-.087.27-.197.359-.366.132-.239.073-.471.03-.638l-.013-.052a.648.648 0 0 1 .113-.512.757.757 0 0 0 .811.153l.008-.004.04-.021.025.023c.011.009.031.026.056.039.086.049.232.109.38.06a.44.44 0 0 0 .149-.07l.012-.008c.029-.019.04-.027.055-.033l.01-.004.01-.005c.011-.006.021-.01.06.004.022.008.047.02.081.038l.012.006c.029.015.065.033.102.049l.006.002c.185.071.446.099.663-.027l.002-.001a.474.474 0 0 0 .238-.374.938.938 0 0 0-.052-.368l-.089-.301c-.123-.42-.256-.871-.449-1.27a1.937 1.937 0 0 0-.404-.555l-.059-.064-.001-.001a1.328 1.328 0 0 1-.055-.06.382.382 0 0 1-.066-.1.75.75 0 0 1-.028-.14l-.004-.026a.77.77 0 0 0-.07-.244l-.004-.007a.902.902 0 0 0-.418-.37c-.06-.031-.134-.058-.193-.08l-.056-.021a.412.412 0 0 1-.149-.084l-.004-.004-.004-.004c-.007-.007-.009-.011-.009-.012s-.003-.008-.004-.022a.421.421 0 0 1 .001-.06l.001-.013c.001-.023.003-.053.003-.083v-.431a3.702 3.702 0 0 0-.132-.836l-.001-.003a.567.567 0 0 0-.265-.339.788.788 0 0 0-.384-.082c-.041 0-.071-.014-.117-.073-.021-.026-.04-.055-.063-.09a1.063 1.063 0 0 0-.127-.17c-.179-.205-.505-.388-.837-.224a.346.346 0 0 0-.065.035l-.014.01a1.23 1.23 0 0 0-.289-.207 2.483 2.483 0 0 0-.309-.123l-.076-.026a3.965 3.965 0 0 1-.218-.077c-.185-.072-.318-.155-.398-.291l-.017-.03-.027-.021a.331.331 0 0 0-.223-.075.222.222 0 0 0-.146.067c-.049.053-.06.119-.049.176zm5.222 6.453h-.001.001z" style="fill:var(--color1, #fff)"/><path fill="#fff" d="m22.454 21.694.014-.173a3.24 3.24 0 0 0-1.645.301 1.8 1.8 0 0 0-.612.442.917.917 0 0 0-.18.323l-.138-.012.116.112a.711.711 0 0 0 .04.359l.003.007a.369.369 0 0 0 .117.156c.054.04.113.058.166.069l.011.002.011.001c.167.01.274.147.258.269v.003a.22.22 0 0 1-.105.168.618.618 0 0 1-.258.085h-.002c-.085.012-.173.016-.27.021a2.438 2.438 0 0 0-.407.04c-.11.018-.218.053-.324.105l-.008.005c-.026.014-.056.034-.079.049l-.019.013a.437.437 0 0 1-.061.035.347.347 0 0 0-.58.066l-.005.009-.004.009a.069.069 0 0 1-.003.008h-.166l.105.152a6.29 6.29 0 0 1-.121.267l-.069-.071-.014-.121-.07.034-.001-.001a.35.35 0 0 0-.363-.068.316.316 0 0 0-.212.329v.002l-.081.039.092.089c.05.518.139 1.022.24 1.523.031.168.19.211.286.198a.26.26 0 0 0 .23-.261c0-.275-.008-.55-.024-.825.03.005.059.006.087.004a.315.315 0 0 0 .26-.165l.002-.003.065-.125.107-.021-.062-.066c.059-.114.117-.229.172-.345.035.006.07.009.107.009a.683.683 0 0 0 .348-.106l.075-.045c.051-.031.087-.053.132-.069.138-.046.282-.05.458-.055l.044-.001c.187-.006.406-.017.62-.115l.006-.003a.955.955 0 0 0 .514-.976l-.001-.005a.89.89 0 0 0-.545-.66.539.539 0 0 1 .127-.128c.144-.111.341-.197.476-.248a2.796 2.796 0 0 1 1.127-.155.312.312 0 0 0 .252-.091.332.332 0 0 0-.226-.556l-.013.173zm0 0c.202.015.202.315 0 .3-.405-.03-.81.03-1.199.165l-1.046.442c.101-.279.414-.495.688-.622a3.07 3.07 0 0 1 1.557-.285z" style="fill:var(--color1, #fff)"/><path fill="#fff" d="M22.193 22.039a.273.273 0 0 0 .165.083l.001.012c.005.051.016.1.032.145l-.099.096.159.021.025.034a.688.688 0 0 0 .245.187l.011.005.011.004c.01.003.046.016.088.033a.319.319 0 0 0-.058.245.34.34 0 0 0 .184.247l.009.059.088-.027a.413.413 0 0 0 .037.005c.232.027.449.12.683.236l.142.072c.188.096.391.2.601.27h.001c.335.108.669.106.978.098l.074-.002c.288-.008.553-.014.817.043.104.022.213.053.307.089a.153.153 0 0 0-.016.011c-.09.044-.182.096-.262.142l-.091.051-.007.004a7.197 7.197 0 0 0-1.395 1.098c-.063.06-.139.131-.205.205a.97.97 0 0 0-.221.375l-.001.003a.564.564 0 0 0 .036.387.445.445 0 0 0 .341.249h.002c.152.021.3-.022.414-.06l.073-.024a1.3 1.3 0 0 1 .244-.066h.002c.088-.012.146.008.167.028a.699.699 0 0 1 .079.101l.003.005c.029.042.069.099.12.149l.007.007.008.006a.578.578 0 0 0 .355.141.858.858 0 0 0 .141-.014l.006-.001a.667.667 0 0 1 .07-.01l.003.006.004.007c.053.09.084.209.098.347.014.136.011.279.003.411-.006.096-.02.194-.034.301l-.009.068a3.01 3.01 0 0 0-.033.409c.002.286.08.581.376.811.5.393 1.177.272 1.633-.02.23-.143.419-.331.591-.503a6.68 6.68 0 0 1 .122-.119l.004-.004c.13-.134.257-.25.389-.369.089-.081.179-.163.272-.253.125-.107.11-.266.052-.362a.291.291 0 0 0-.349-.127c-.294.095-.519.278-.712.469-.078.076-.153.157-.225.234l-.053.056c-.09.095-.177.185-.267.266a1.42 1.42 0 0 1-.574.306c-.205.047-.377.014-.5-.136v-.001c-.057-.068-.081-.16-.081-.285 0-.093.012-.185.026-.285.005-.039.011-.079.015-.12a2.43 2.43 0 0 0 .015-.847c-.03-.218-.081-.543-.295-.769l-.005-.005a.66.66 0 0 0-.342-.167l-.009-.001a.618.618 0 0 0-.146.004l-.048.007-.007.001a.438.438 0 0 1-.082.007 2.002 2.002 0 0 1-.069-.092l-.001-.002a2.25 2.25 0 0 0-.091-.12l-.006-.007-.007-.007a.86.86 0 0 0-.37-.193l-.006-.002-.006-.001a1.145 1.145 0 0 0-.349-.015c.134-.133.273-.264.411-.388a7.502 7.502 0 0 1 1.352-.863l.002-.001a.893.893 0 0 0 .299-.237.395.395 0 0 0 .081-.223.382.382 0 0 0-.09-.252c-.098-.126-.252-.211-.392-.27a2.874 2.874 0 0 0-.415-.135 3.667 3.667 0 0 0-1.276-.133l-.016.001a6.462 6.462 0 0 1-.234.008 1.488 1.488 0 0 1-.461-.054l-.003-.001c-.223-.064-.424-.166-.641-.275l-.135-.068a4.155 4.155 0 0 0-.369-.165.556.556 0 0 0 .002-.071c.142.018.285.035.425.049h.001c.179.017.386-.009.538-.118a.454.454 0 0 0 .176-.244.551.551 0 0 0-.019-.334c-.146-.421-.604-.567-.958-.567a7.68 7.68 0 0 0-1.086.104c-.114.017-.227.033-.338.047l-.033.004-.029.016c-.136.075-.175.231-.165.338.005.06.027.131.081.189zm1.916.098-.001-.001.001.001z" style="fill:var(--color1, #fff)"/><path fill="#fff" d="m29.952 27.946-.014.008a.268.268 0 0 1-.327-.044c-.091-.094-.096-.229-.043-.344l.006-.014.009-.012c.166-.241.395-.301.598-.322.056-.006.123-.009.183-.013l.1-.006a.965.965 0 0 0 .232-.04c.139-.051.248-.162.384-.317l.028-.032c.122-.138.27-.307.47-.408l.002-.001a1.23 1.23 0 0 1-.273-.146 2.333 2.333 0 0 1-.454-.442 4.077 4.077 0 0 1-.666-1.142 2.847 2.847 0 0 1-.198-.731l-.01-.059c-.029-.174-.069-.408-.019-.619.059-.28.27-.412.432-.513l.049-.031.005-.003c.099-.059.198-.121.3-.185l.001-.001c.1-.063.202-.127.304-.188.21-.135.42-.266.63-.397.21-.131.419-.262.627-.396.034-.022.068-.046.104-.071.161-.112.346-.24.561-.309l.007-.002.012-.003a.986.986 0 0 1 .373-.048c.077.001.146.015.199.026h.001a.713.713 0 0 0 .131.019.57.57 0 0 0 .223-.066l.058-.028c.076-.037.169-.082.261-.109l.007-.002.007-.001c.232-.048.399-.009.567.03l.06.014c.027.003.052-.004.09-.035.035-.028.062-.06.097-.1l.058-.066.004-.004.004-.004.008-.008c.103-.1.232-.224.402-.297l.006-.003.006-.002c.114-.039.231-.054.329-.067l.04-.005a.942.942 0 0 0 .279-.069c.077-.041.151-.088.233-.141l.003-.002c.08-.051.167-.107.259-.156h.001a1.31 1.31 0 0 1 .715-.154h.003a2.542 2.542 0 0 1 .154.019c.053.007.103.012.151.013.102.002.155-.018.182-.043.006-.006.017-.021.025-.07a.808.808 0 0 0 .009-.092c.002-.028.004-.063.008-.096v-.003l.047-.315.001-.005.001-.005c.048-.232.113-.47.213-.695m-8.255 9.353 8.416-9.285m-8.416 9.285.013-.011c.035-.03.078-.044.147-.044.036 0 .075.004.122.009l.033.004.116.013c.191.015.415.019.627-.073m-1.058.102 1.057-.102m7.2-9.252v-.001l.159.071m-.159-.07v.001l.16.069m-.16-.07c.085-.196.216-.406.457-.522l.007-.004.008-.003c.057-.021.111-.037.16-.052l.016-.005c.043-.013.081-.024.117-.037a.49.49 0 0 0 .191-.109l.007-.007c.042-.036.078-.07.117-.105l.108-.098c.08-.071.17-.145.27-.203s.215-.105.345-.114a.72.72 0 0 1 .402.095l.006.003a.29.29 0 0 1 .134.174.284.284 0 0 1-.02.197.313.313 0 0 1-.318.176l-.007-.001c-.072-.012-.145.014-.234.082-.064.049-.116.103-.174.163l-.098.099-.005.005a1.671 1.671 0 0 1-.654.351c-.083.026-.137.083-.182.171a1.52 1.52 0 0 0-.098.299l-.01.038-.001.005a3.394 3.394 0 0 0-.1.588l-.019.166-.001.006a.725.725 0 0 1-.463.594c-.218.088-.476.093-.701.078m.899-1.961c.078-.18.187-.345.374-.435.056-.021.111-.037.165-.053.139-.041.268-.079.38-.187l.125-.113c.26-.239.543-.499.918-.293.125.075.031.24-.093.225-.237-.038-.418.149-.571.307-.028.029-.056.058-.083.083-.187.165-.358.24-.592.315-.265.085-.335.359-.395.591l-.01.039c-.062.215-.084.421-.107.624l-.018.157c-.078.495-.545.555-.981.526m-.01.175h.001l.009-.174m-.01.174c-.124-.007-.217.004-.303.028s-.172.064-.281.127m.584-.155h-.001l.012-.174m-.001 0c-.28-.015-.452.045-.685.18m-4.827 5.66c-.42.03-.747-.3-.981-.586a3.904 3.904 0 0 1-.638-1.096 2.68 2.68 0 0 1-.187-.691l-.01-.064c-.03-.179-.062-.378-.021-.552.043-.206.189-.299.357-.405l.048-.03c.101-.06.202-.124.304-.188s.202-.128.304-.188c.21-.135.42-.267.631-.398s.42-.263.631-.398l.116-.079c.16-.111.318-.22.507-.281.109-.03.218-.06.327-.045.064 0 .125.012.183.024a.807.807 0 0 0 .16.021c.125 0 .244-.057.365-.115.075-.036.15-.072.227-.095.192-.04.324-.009.492.029l.069.016c.161.026.265-.094.36-.204l.045-.051c.109-.105.218-.21.358-.27.096-.033.194-.046.293-.058a1.17 1.17 0 0 0 .376-.092c.086-.045.167-.098.249-.15s.163-.105.249-.15a1.145 1.145 0 0 1 .722-.123c.171.023.395.052.523-.072.072-.07.079-.175.086-.275l.007-.085-6.15 6.651zm0 0a.726.726 0 0 0 .483-.255m-.483.255.483-.255m0 0 .019-.026c.047-.063.117-.156.199-.17.07-.011.096.045.125.105.01.02.019.041.031.06m-.374.031.374-.03m0 0c.078.12.218.21.374.15.057-.022.106-.061.153-.097l.049-.038m-.576-.015.576.015m0 0a.911.911 0 0 1 .296-.195m-.296.195.469-.237m-.173.041a1.36 1.36 0 0 1 .173-.042m-.173.042.053.166.007-.002m-.06-.164.066.161-.006.003m.113-.206a.82.82 0 0 0-.103.202m.103-.202-.103.202m-.011.004.011-.003m-.011.003a.74.74 0 0 0-.235.157l-.009.009-.01.007a1.294 1.294 0 0 0-.041.032l-.003.002a1.289 1.289 0 0 1-.05.038.634.634 0 0 1-.148.084c-.264.102-.481-.062-.582-.218l-.002-.003-.023-.041m1.114-.07-1.151-.005v.001m1.151.004c.065-.019.132-.032.208-.044l.001-.002-.21.046zm-1.113.071.015-.017a.153.153 0 0 1 .03-.027l.005-.003-.007.002h-.025a.077.077 0 0 1-.033-.012c-.013-.008-.02-.016-.022-.018m.037.075a.664.664 0 0 0-.039.05l-.027.035-.005.006-.005.005a1.098 1.098 0 0 1-.198.171m.274-.267-.017-.035-.001-.002-.019-.038v-.001m0 .001-.236.343m0 0a1.096 1.096 0 0 0-.056-.01l.056.01zm0 0a.872.872 0 0 1-.06.037l-.026.124m.086-.161c.113.024.218.07.301.11l.01.005.009.006c.058.037.109.082.149.117l.004.003c.042.037.074.064.106.086m0-.001h-.001l-.087.151m.088-.151.006.004-.094.146m.088-.15.581.045c-.156.06-.514.195-.669.105m-.001 0c-.047-.03-.09-.068-.132-.105s-.086-.075-.132-.105a1.077 1.077 0 0 0-.311-.105m-.001 0a1.037 1.037 0 0 0-.638.075m.638-.075.016-.119-.655.194m.001 0c-.168.085-.295.229-.421.372-.142.162-.284.322-.482.394-.126.042-.259.049-.39.056l1.293-.822zm-.648 1.286c.196-.081.343-.214.469-.339l.094-.095c.09-.092.17-.174.264-.245a.5.5 0 0 1 .388-.093l.006.001c.062.013.114.049.193.116l.022.019c.069.06.166.142.289.188l.003.001c.122.043.246.04.351.027.067-.008.142-.023.205-.035l.077-.015.005-.001.005-.001c.197-.047.391-.114.57-.235l.005-.003c.125-.091.283-.217.366-.395a.88.88 0 0 0 .079-.295l.004-.032c.013-.085.027-.134.064-.178l.005-.006.027-.034c.037-.045.085-.105.119-.165a.477.477 0 0 0 .059-.33.45.45 0 0 0-.211-.299.701.701 0 0 0-.295-.096 1.288 1.288 0 0 0-.623.053 1.735 1.735 0 0 0-.292.123.964.964 0 0 0-.117.073.504.504 0 0 0-.081-.078c-.206-.172-.501-.163-.706-.046-.114.061-.192.165-.243.233l-.015.02c-.063.082-.096.113-.131.124l-.007.003c-.031.011-.082.009-.163-.037a.936.936 0 0 1-.209-.173l-.004-.004a3.121 3.121 0 0 1-.678-1.051l-.001-.002a3.84 3.84 0 0 1-.162-.556c-.006-.037-.014-.074-.022-.112-.015-.074-.031-.15-.04-.233a.57.57 0 0 1 0-.144c.005-.031.012-.041.013-.042.061-.059.146-.114.249-.173l.094-.052c.074-.041.152-.084.22-.128.11-.068.215-.136.32-.203h.001l.316-.201h.001l-.092-.148m-.791 5.294 2.356-5.962.107.011.045.006c.057.007.123.013.195.013.203 0 .391-.085.536-.152l.059-.027m-2.51.817c.161-.098.317-.202.473-.306.252-.168.503-.336.773-.475m-1.246.781c-.109.068-.214.135-.319.203s-.21.135-.319.203l.638-.405zm1.246-.781.076.157.002-.001.002-.001-.08-.154zm0 0c.171-.083.306-.066.454-.047.067.008.138.017.215.017.162 0 .312-.068.461-.134l.069-.031m0 0 .063.162.004-.001m-.067-.161.039-.015c.069-.028.147-.06.226-.06.069 0 .138.018.203.035.038.01.074.019.108.025.171.03.327-.03.467-.135.062-.045.113-.101.164-.158s.101-.113.163-.158c.116-.101.252-.121.396-.141.069-.01.14-.02.211-.039.196-.054.354-.157.52-.264l.056-.036m-2.553.946.07.159-.003.002m-.001 0 2.578-.958m0 0-.003.002-.087-.151m.09.149.003-.002-.094-.146m-2.809 5.133a.42.42 0 0 1 .131.015.413.413 0 0 0-.094.088.17.17 0 0 1-.037-.103zm-.867.06-.018.018-.012-.025-.006-.012.036.018zm-.049-.052-.021-.039a.183.183 0 0 1 .133-.009l.015.006.002.001a.376.376 0 0 0-.075.09l-.004.004-.049-.051zm.533-.248a1.354 1.354 0 0 0-.373.179l-1.79 1.593c.093-.095.187-.191.294-.272.156-.105.343-.165.529-.12.119.025.206.098.292.173a.793.793 0 0 0 .237.158c.142.05.305.017.454-.013l.091-.018a1.54 1.54 0 0 0 .514-.21c.125-.09.249-.195.311-.33a.718.718 0 0 0 .063-.239c.015-.105.029-.208.108-.302l.036-.046c.083-.102.162-.201.135-.345-.031-.165-.202-.24-.358-.255a1.112 1.112 0 0 0-.545.045zm-.592.151a.3.3 0 0 0-.062-.061l.062.061zm-1.557.044a3.27 3.27 0 0 1-.716-1.111l.716 1.111z" style="fill:var(--color1, #fff)"/><path fill="#fff" d="M42.336 14.691c.13-.008.292-.028.433-.095a.593.593 0 0 0 .18-.128l.093.022-.043-.084a.534.534 0 0 0 .087-.221.378.378 0 0 0-.029-.231.3.3 0 0 0-.219-.164c-.065-.014-.127-.027-.189-.042l-.048-.093a.833.833 0 0 0 .194-.134c.195-.156.338-.364.41-.607a.988.988 0 0 0 .025-.433 2.55 2.55 0 0 0-.023-.143 1.846 1.846 0 0 1-.027-.205v-.001a.326.326 0 0 1 .018-.113c.01-.032.02-.058.031-.088l.027-.073c.042-.12.09-.298-.024-.482l-.003-.004c-.166-.252-.478-.279-.695-.205-.073.021-.133.055-.176.079l-.005.003a.451.451 0 0 1-.109.051l-.007.002-.006.002a.041.041 0 0 1-.015.004.1.1 0 0 1-.014-.012c-.011-.011-.025-.025-.043-.046l-.035-.043c-.107-.131-.241-.296-.453-.381a1.195 1.195 0 0 0-.328-.074 2.687 2.687 0 0 0-.106-.009 1.708 1.708 0 0 1-.211-.025l-.011-.002a.746.746 0 0 1-.038-.007h-.001l-.003-.007-.017-.05-.007-.026c-.01-.036-.024-.087-.04-.126l-.004-.009-.005-.009a.454.454 0 0 0-.329-.245.55.55 0 0 0-.359.088c-.015.008-.029.009-.058-.001-.035-.012-.069-.033-.122-.065a.54.54 0 0 0-.035-.021c-.135-.081-.284-.145-.421-.204l-.002-.001a4.933 4.933 0 0 0-.8-.308l-.013-.004c-.087-.028-.214-.069-.338-.078a.473.473 0 0 0-.423.166.211.211 0 0 0-.035.053.41.41 0 0 0-.028.072 2.139 2.139 0 0 1-.081-.047l-.007-.004-.068-.039a2.769 2.769 0 0 1-.533-.446c-.079-.089-.14-.194-.211-.316l-.009-.016c-.066-.114-.14-.244-.239-.364-.227-.295-.554-.321-.831-.306l-.008.001a3.173 3.173 0 0 0-.923.238c-.15.064-.282.144-.404.217l-.013.006c-.022.011-.048.024-.075.035a.324.324 0 0 0-.253-.213.393.393 0 0 0-.339.093l-.08-.022-.001.008a.956.956 0 0 1-.097-.059l-.009-.007c-.134-.1-.297-.223-.502-.277l-.006-.001a.709.709 0 0 0-.353.013 1.691 1.691 0 0 0-.125.04l-.007.003c-.041.014-.076.026-.111.035a.458.458 0 0 1-.372-.066l-.003-.002a.444.444 0 0 1-.188-.29.486.486 0 0 1 .012-.186l.012-.052c.014-.061.033-.137.04-.21v-.001c.02-.221-.056-.411-.125-.566a3.338 3.338 0 0 1-.029-.065 1.356 1.356 0 0 1-.127-.368.318.318 0 0 0-.165-.243.357.357 0 0 0-.252-.026c-.148.037-.317.18-.286.406v.002c.019.13.067.246.114.347l.051.106c.029.059.055.112.079.171l.003.006a.333.333 0 0 1 .018.202c-.006.04-.016.08-.027.129l-.001.006a1.883 1.883 0 0 0-.034.167l-.001.006v.006c-.037.483.259.944.717 1.121.22.088.453.104.68.07.077-.011.149-.041.198-.061l.007-.003a.758.758 0 0 1 .109-.039c.046.003.084.028.162.079l.04.026c.156.11.36.225.574.257.067.01.138.012.208.003a.666.666 0 0 0 .256.126.734.734 0 0 0 .458-.046c.115-.048.222-.117.307-.171l.023-.015a2.074 2.074 0 0 1 .852-.296c.048-.006.09-.012.132-.013.056-.002.086.006.1.014l.008.004c.017.008.038.027.065.074.014.023.026.049.041.081l.008.018.04.082.004.006c.264.462.644.843 1.105 1.114.087.053.208.123.34.164a.63.63 0 0 0 .463-.021.468.468 0 0 0 .222-.254l.019.007.062.027.002.001c.022.01.047.021.071.03l.004.002c.289.103.563.22.839.353.046.022.094.05.152.083l.006.003c.058.033.123.071.192.103a.758.758 0 0 0 .496.078l.007-.002.005-.002c.023.046.05.087.076.121l.003.004c.171.206.42.257.618.273h.001l.041.003c.202.015.318.023.412.114a.88.88 0 0 1 .081.092l.023.029c.022.028.047.061.072.09a.66.66 0 0 0 .312.22c.175.062.32.032.441-.014.032-.012.064-.026.095-.04a1.002 1.002 0 0 0-.016.329l.001.007.017.105c.043.262.067.41-.074.585l-.002.002a.538.538 0 0 1-.274.181l-.006.002c-.035.013-.062.02-.092.029l-.085.025a.667.667 0 0 0-.212.106.596.596 0 0 0-.238.387.494.494 0 0 0 .166.452l.006.005c.02.016.04.03.061.043a.669.669 0 0 0-.138.138c-.171.225-.19.489-.16.721l-.109.105.136.044a.491.491 0 0 0 .01.041l.001.002a.326.326 0 0 0 .244.236.365.365 0 0 0 .191-.005c.002.024.003.053.003.093v.005c0 .044 0 .103.009.161l.002.017c.013.119.035.31.156.454l.019.024-.001.001-.008.008-.007.008c-.134.166-.174.379-.202.531l-.005.026-.002.008-.001.008a2.32 2.32 0 0 1-.069.441c-.027.071-.056.095-.081.108a.42.42 0 0 1-.19.029l-.229-.001a8.879 8.879 0 0 0-1.179.047l-.016.002-.015.005a.368.368 0 0 0-.244.232c-.017.057-.02.135.026.206s.12.102.185.111c.321.046.625.062.942.062.06 0 .126.003.198.008l.024.001c.064.004.133.008.202.01.154.004.327-.003.489-.058l.005-.002c.312-.117.441-.352.503-.588.029-.114.045-.233.058-.338l.001-.012c.013-.102.024-.191.043-.273a.366.366 0 0 1 .048-.083c.018-.025.035-.046.055-.07l.043-.053c.07-.089.168-.225.156-.409v-.005l-.001-.005a.43.43 0 0 0-.092-.222c-.039-.049-.088-.086-.122-.112a.088.088 0 0 1-.039-.049.332.332 0 0 1-.011-.105v-.022c0-.207.001-.546-.289-.749a.581.581 0 0 0-.176-.092l.002-.005.001-.002c.01-.027.019-.039.024-.045s.009-.009.017-.012a.503.503 0 0 1 .152-.026zm0 0h-.002l-.01-.174m.012.174h.002l-.015-.173m0 0c-.171.015-.28.03-.343.195l.755-.296a.957.957 0 0 1-.413.101zm-.118-.715.001-.001-.001.001z" style="fill:var(--color1, #fff)"/><path fill="#fff" d="m31.633 6.878.004-.006.003-.006a.696.696 0 0 0 .077-.494l-.001-.005a.655.655 0 0 0-.125-.243.497.497 0 0 0-.127-.111l-.024-.016a.552.552 0 0 0-.02-.013l-.002-.023-.002-.025c-.002-.019-.004-.049-.012-.079a.527.527 0 0 0-.141-.247.673.673 0 0 0-.542-.168 1.141 1.141 0 0 0-.28.065l-.071.024a1.9 1.9 0 0 1-.157.05c-.025.006-.056.001-.125-.039a.76.76 0 0 1-.059-.037l-.058-.036a.82.82 0 0 0-.157-.078 1.555 1.555 0 0 0-.665-.063 2.533 2.533 0 0 0-.138-.974c.097-.045.191-.097.275-.161.201-.152.358-.374.347-.685l-.001-.008c-.022-.272-.198-.448-.372-.566l-.001-.001c-.191-.127-.317-.241-.407-.427l-.001-.002a4.067 4.067 0 0 1-.118-.267l-.009-.021a4.416 4.416 0 0 0-.145-.319c-.111-.214-.264-.428-.517-.564a.97.97 0 0 0-.66-.096.89.89 0 0 0-.233.084.881.881 0 0 0-.286-.085c-.23-.029-.476.02-.67.105-.068.029-.134.063-.195.094l-.003.002a2.382 2.382 0 0 1-.179.086.486.486 0 0 1-.297.048l-.004-.001c-.08-.015-.154-.043-.243-.076a2.404 2.404 0 0 0-.066-.024 1.155 1.155 0 0 0-.394-.084.668.668 0 0 0-.424.139.985.985 0 0 0-.235.291c-.026.045-.047.085-.067.122a2.667 2.667 0 0 1-.088.155.518.518 0 0 1-.161.172.548.548 0 0 1-.456.048 4.643 4.643 0 0 1-.149-.067l-.001-.001a3.557 3.557 0 0 0-.162-.072 1.218 1.218 0 0 0-.394-.097h-.01c-.243 0-.483.084-.678.152a2.46 2.46 0 0 1-.064.022l-.004.001-.082.031c-.079.03-.15.058-.224.075-.093.022-.157.018-.205-.006a.345.345 0 0 0-.224-.043.428.428 0 0 0-.198.089c-.771.598-1.028 1.554-1.093 2.422l-.025-.039-.003-.004c-.295-.419-.813-.688-1.363-.435-.04.016-.086.041-.121.059a.485.485 0 0 0-.023.012l-.059.029-.02-.013-.012-.008c-.03-.021-.085-.06-.148-.082-.23-.094-.44.016-.571.143a.435.435 0 0 0-.031.035c-.008-.029-.016-.058-.026-.087l-.002-.006c-.185-.476-.755-.603-1.16-.444a1.145 1.145 0 0 0-.493.385.838.838 0 0 0-.472-.24.782.782 0 0 0-.683.21.342.342 0 0 0-.106.272.377.377 0 0 0 .111.234.368.368 0 0 0 .512.018l.005-.005a.07.07 0 0 1 .046-.012.075.075 0 0 1 .043.014c.018.024.024.052.04.125a.72.72 0 0 1 .006.029c.019.085.054.22.191.313.261.176.545.032.684-.14l.006-.008.005-.008c.036-.057.066-.114.092-.167l.022-.044c.018-.036.033-.068.051-.101a.494.494 0 0 1 .16-.193l.005-.004a.266.266 0 0 1 .143-.044c.052-.001.086.013.106.032a.393.393 0 0 1 .05.158l.005.029c.012.075.03.182.078.274l.003.006.003.005a.503.503 0 0 0 .557.257.915.915 0 0 0 .464-.288l.014-.015c.259.145.529.036.695-.031a.069.069 0 0 0 .008-.003l.002-.001a.886.886 0 0 1 .249-.077.239.239 0 0 1 .173.056l.005.003c.165.114.26.317.32.546l.001.004c.015.054.026.119.04.2l.001.008c.013.081.03.175.056.266.054.183.166.39.431.457a.45.45 0 0 0 .377-.052.532.532 0 0 0 .192-.266c.066-.184.069-.408.069-.526 0-.49.005-1.023.114-1.512.098-.433.275-.818.595-1.102.227.045.436.001.625-.06.072-.023.15-.053.225-.081a9.55 9.55 0 0 1 .134-.05 1.53 1.53 0 0 1 .332-.085c.094-.009.186.025.318.089l.041.02c.115.056.264.13.429.147.309.035.612-.053.858-.205l.004-.003c.263-.174.37-.4.472-.615l.04-.084.001-.002c.022-.046.04-.052.045-.054.014-.004.043-.007.102.009.057.015.119.041.195.071l.003.001c.07.029.156.064.238.083.395.091.727-.076 1.003-.223.102-.045.227-.097.338-.114l.032-.004h.057c.046.005.064.024.076.045l.003.005a.362.362 0 0 0 .3.17.339.339 0 0 0 .315-.178.106.106 0 0 1 .034-.041h.061l-.007-.013c.013 0 .028.001.045.005a.493.493 0 0 1 .238.133c.087.096.148.219.208.366l.042.106c.045.115.095.243.158.358.073.157.18.292.299.407l.005.005.005.004c.059.049.126.09.179.123a.794.794 0 0 1 .154.108l.004.004.004.004c.009.008.011.013.011.014s.002.007.001.016a.169.169 0 0 1-.052.087.475.475 0 0 1-.17.095l-.026.009-.044-.082-.037.107-.101.027-.042.011a.338.338 0 0 0-.24.215.365.365 0 0 0 .018.288c.033.066.062.133.087.2l-.036.104.065-.019c.093.289.114.588.07.891l-.121.027.1.096-.009.041c-.056.245.167.502.434.416l.033-.007.006-.001.1.096.033-.124c.215-.043.402-.068.578-.013.039.017.077.039.127.069l.004.002c.048.029.108.064.174.091l.007.003a.963.963 0 0 0 .454.039l.01-.001.01-.002c.073-.018.141-.044.197-.065l.004-.002c.059-.023.106-.041.155-.053l.011-.002a.574.574 0 0 0 .216.373l.005.004.005.004c.027.018.059.037.082.05l.017.01.031.019c-.09.169-.043.348.089.44a.302.302 0 0 0 .432-.09zM20.446 5.66c0-.892.013-1.996.692-2.673l-1.517 2.537c.018.064.031.138.044.215.041.248.088.527.361.596.405.105.42-.435.42-.676zm1.084-2.769c.199-.002.387-.073.58-.146.166-.063.335-.127.516-.148.163-.017.308.054.454.125l-1.55.168zm-1.488 3.145c-.001.002-.001.002-.001 0-.002 0-.002-.001 0-.002l.002-.001a.01.01 0 0 1-.001.003z" style="fill:var(--color1, #fff)"/><path fill="#fff" d="M15.356 4.488c-.017-.183-.17-.272-.289-.298l-.01-.021a.511.511 0 0 0-.556-.287l-.008.001-.008.002a.719.719 0 0 0-.198.099 2.529 2.529 0 0 1-.157.102l-.006.003-.052.014c-.083-.12-.231-.148-.333-.138-.097.01-.232.066-.283.2-.21-.112-.435-.101-.63-.076h-.002c-.106.015-.149.002-.166-.01a.317.317 0 0 1-.061-.074.398.398 0 0 1-.017-.026c-.021-.032-.049-.075-.078-.11-.181-.242-.434-.322-.645-.389l-.046-.015-.005-.001a16.333 16.333 0 0 0-3.525-.607h-.002a22.877 22.877 0 0 0-1.758-.03h-.002c-.432.015-.919.092-1.316.341a1.345 1.345 0 0 0-.529.61l-.019.043c-.013.03-.025.059-.039.088a.5.5 0 0 1-.075.117l-.001.001a.51.51 0 0 1-.034-.017l-.026-.015-.002-.001-.029-.017-.006-.003-.006-.003a.904.904 0 0 0-.387-.092h-.007l-.007.001a.702.702 0 0 0-.561.379c-.132.254-.145.545-.114.813.031.27.11.535.181.748l.001.003c.157.441.397.852.713 1.209a.617.617 0 0 0-.054.249c0 .182.074.331.135.447l.022.041c.055.104.096.18.111.264l.002.008c.023.101.005.186-.038.235-.024.027-.041.033-.066.036a.523.523 0 0 1-.07.005h-.009c-.026.001-.059.002-.094.005a.721.721 0 0 0-.48.198 2.392 2.392 0 0 0-.222.241l-.073.085-.001.001c-.218.248-.437.5-.655.751-.218.252-.436.503-.653.75l-.002.002a8.754 8.754 0 0 1-.206.232c-.123.137-.255.283-.369.428-.187.239-.357.51-.428.824-.116.482-.011.957.154 1.393a.655.655 0 0 0-.086.006l-.007.001-.007.002c-.201.046-.319.188-.395.32a1.585 1.585 0 0 0-.093.198l-.026.066a3.998 3.998 0 0 1-.042.101c-.069.155-.142.306-.216.461l-.001.001c-.073.152-.148.307-.218.466-.021.043-.047.09-.076.143l-.015.028a3.171 3.171 0 0 0-.108.211c-.066.145-.127.328-.095.516.034.199.177.349.304.457.066.056.136.108.199.154l.026.019c.054.039.101.073.14.106l.002.001c.131.104.262.212.395.321l.001.001c.132.108.265.218.398.324a.424.424 0 0 1 .024.02c.175.141.428.345.743.363.284.018.569-.092.733-.35l.003-.004.002-.004a.337.337 0 0 0 .024-.284.377.377 0 0 0-.407-.234.33.33 0 0 0-.232.168l-.002.005a.084.084 0 0 1-.012.018l-.003.002s-.009.004-.033.001a.675.675 0 0 1-.242-.114 2.911 2.911 0 0 1-.291-.227c-.032-.028-.065-.056-.095-.084l-.119-.103-.295-.24-.295-.24-.001-.001a1.579 1.579 0 0 0-.121-.086l-.04-.027a.376.376 0 0 1-.086-.075c-.001-.001-.009-.007.007-.05a.884.884 0 0 1 .038-.083l.004-.009c.013-.027.031-.06.044-.094.141-.282.276-.565.413-.851l.222-.464a.698.698 0 0 0 .031-.071l.001-.003.001-.001.015-.038.022.013.026.014.006.003.007.003a.932.932 0 0 0 .204.056l.124.258.044-.257a.664.664 0 0 0 .202-.063c.213-.103.214-.348.143-.489-.147-.306-.285-.624-.339-.939-.053-.311-.023-.608.157-.885.151-.23.344-.439.546-.658l.106-.116.003-.003.001-.001c.248-.284.498-.57.733-.857.248-.284.499-.571.734-.858l.003-.003.031-.042.01-.013a.483.483 0 0 1 .054-.063l.004-.001.014-.006s.012-.004.058 0a.659.659 0 0 1 .071.007c.026.002.057.005.089.005h.01l.01-.001a.807.807 0 0 0 .414-.171c.292-.226.381-.562.346-.89a1.293 1.293 0 0 0-.176-.517l-.016-.028-.002-.003-.022-.039c-.008-.015-.016-.03-.022-.045a.365.365 0 0 0 .164-.22.355.355 0 0 0-.088-.351 3.243 3.243 0 0 1-.101-.102l.029-.097-.098.022a2.695 2.695 0 0 1-.519-.826l-.001-.003a3.538 3.538 0 0 1-.182-.555 1.303 1.303 0 0 1-.027-.531l.001-.003a.474.474 0 0 1 .014-.057l.01.004.017.008c.159.07.391.172.646.07.226-.089.348-.258.435-.412.025-.044.051-.095.076-.142l.04-.076a.943.943 0 0 1 .109-.17l.002-.003a.8.8 0 0 1 .36-.233c.153-.055.324-.087.49-.109.456-.044.913-.044 1.36-.029h.001c1.032.03 2.064.163 3.082.386h.001a13 13 0 0 1 .814.192h.001c.032.009.065.016.095.023l.012.003.074.017a.389.389 0 0 1 .113.041c.043.027.064.06.107.125l.046.068.004.006c.142.188.337.348.621.369.08.009.156.004.219-.002l.043-.004c.049-.005.088-.008.129-.008h-.002l.021.003a.338.338 0 0 0 .114.253.372.372 0 0 0 .383.069l.039.038.043-.077a.904.904 0 0 0 .295-.254.829.829 0 0 0 .15.014.728.728 0 0 0 .424-.164l.005.01.01.013c.068.087.157.15.262.191l.007.003.007.002c.122.035.25.02.353-.049s.168-.182.18-.312l.002-.016-.002-.016z" style="fill:var(--color1, #fff)"/><path fill="#fff" d="M2.555 16.995c0-.015-.016-.015-.031-.015.016.015.047.015.062.015h.016c-.031 0-.062-.015-.078-.015.016.015.031.03.047.03h.094c.016 0 .016 0 .031-.015-.016 0-.016 0-.031.015h.016c.016 0 .016 0 .031-.015.016 0 .016-.015.031-.03s.031-.045.016-.06c0-.015 0-.03-.016-.045 0-.015-.016-.015-.031-.03s-.016-.015-.031-.015h-.047c-.016 0-.047 0-.062.015 0 0-.016 0-.016.015-.016 0-.016.015-.031.015a.11.11 0 0 0-.031.075c.016-.015.016-.045.031-.06l-.031.03c-.015.015-.016.045-.016.06v-.045c-.016.015-.016.03-.016.045s0 .045.016.06h.031c.016-.015.031-.015.047-.03z" style="fill:var(--color1, #fff)"/><path fill="#fff" d="M2.555 17.169a.193.193 0 0 0 .125-.046l.011-.01-.005.004c-.004.003-.012.01-.022.016a.15.15 0 0 1-.078.021v-.348a.193.193 0 0 0-.125.046l-.011.01.005-.005a.167.167 0 0 1 .06-.032.15.15 0 0 1 .04-.005v.348zm0-.174.241.25.106-.103v-.148h-.348zm-.031-.015v-.348h-.862l.62.598.241-.25zm.171.015.241.25.62-.598h-.862v.348zm.015 0v-.348h-.14l-.101.097.241.25zm.047-.09h-.348v.148l.106.103.241-.25zm-.015-.045h-.348v.148l.106.103.241-.25zm-.172-.03v.348h.14l.101-.097-.241-.25zm-.015.015v.348h.348v-.348h-.348zm-.031.015v-.348h-.14l-.101.097.241.25zm-.032.075h-.348v.819l.589-.568-.241-.25zm-.015-.015h.348v-.819l-.589.568.241.25zm0 .105-.241.25.101.097h.14v-.348zm.031 0v.348h.14l.101-.097-.241-.25zm.395-.03a.362.362 0 0 0-.379-.363v.696h-.011a.331.331 0 0 1-.305-.332h.696zm-.621.235a.4.4 0 0 0 .217.106c.043.007.08.006.086.006v-.696c-.01 0 .005-.001.024.003a.304.304 0 0 1 .155.079l-.483.501zm.304.113h.016v-.696h-.016v.696zm.015-.696c.019 0 .034.002.041.004l.007.001-.008-.002-.018-.005a.327.327 0 0 0-.034-.007c-.014-.002-.037-.006-.065-.006v.696c-.024 0-.043-.003-.052-.004l-.018-.004c-.002-.001-.003-.001 0 0l.011.003a.468.468 0 0 0 .137.02v-.696zm-.319.583a.533.533 0 0 0 .061.052c.029.021.11.075.227.075v-.696a.3.3 0 0 1 .18.057c.016.012.027.023.014.011l-.483.501zm.288.128v-.696.696zm.031 0h.016v-.696h-.016v.696zm.016 0v-.696.696zm.031 0h.016v-.696h-.016v.696zm.016 0h.012c.006 0 .017 0 .031-.002a.347.347 0 0 0 .124-.035c.042-.02.071-.045.083-.055l.023-.021-.483-.501.004-.004a.319.319 0 0 1 .182-.077c.018-.002.034-.001.024-.001v.696zm.031-.711h-.012c-.006 0-.017 0-.031.002a.347.347 0 0 0-.124.035c-.042.02-.071.045-.083.055l-.023.021.483.501-.004.004a.319.319 0 0 1-.182.077c-.018.002-.034.001-.024.001v-.696zm-.031.711h.016v-.696h-.016v.696zm.015 0h.012c.006 0 .017 0 .031-.002a.347.347 0 0 0 .124-.035c.042-.02.071-.045.083-.055l.023-.021-.483-.501.004-.004a.319.319 0 0 1 .182-.077c.018-.002.034-.001.024-.001v.696zm.031-.015a.367.367 0 0 0 .204-.062c.057-.038.088-.084.098-.097.03-.044-.004.007-.029.032l-.483-.501a.373.373 0 0 0-.054.064l-.01.015.004-.006a.332.332 0 0 1 .27-.141v.696zm.273-.128a.423.423 0 0 0 .107-.167.374.374 0 0 0-.091-.394l-.483.501a.32.32 0 0 1-.083-.334.274.274 0 0 1 .068-.107l.483.501zm.122-.31c0-.001.002-.053-.013-.11a.403.403 0 0 0-.109-.186l-.483.501a.295.295 0 0 1-.082-.141c-.011-.042-.009-.079-.009-.065h.696zm-.016-.045a.362.362 0 0 0-.069-.213c-.041-.056-.088-.086-.1-.094-.044-.028.007.003.032.027l-.483.501a.41.41 0 0 0 .065.051l.015.009-.005-.003a.333.333 0 0 1-.15-.277h.696zm-.137-.281-.023-.021a.357.357 0 0 0-.207-.09l-.031-.002h-.012v.696l-.024-.001a.343.343 0 0 1-.186-.081l.483-.501zm-.273-.112v.696-.696zm-.046 0c-.002 0-.171-.016-.304.112l.483.501c-.018.017-.041.035-.071.051s-.058.023-.079.027c-.019.004-.034.004-.036.004h.007v-.696zm-.063.363v-.348h-.011l-.013.001-.033.004a.356.356 0 0 0-.241.152.36.36 0 0 0-.064.207h.696a.337.337 0 0 1-.189.3.308.308 0 0 1-.121.031l-.012.001h-.011c-.001 0 0 0 0 0v-.348zm-.015-.333a.369.369 0 0 0-.239.088l-.014.012-.005.005.002-.002.011-.009c.005-.004.026-.021.048-.034a.335.335 0 0 1 .165-.044v.696a.369.369 0 0 0 .239-.088l.014-.012.005-.005-.002.002-.011.009c-.005.004-.026.021-.048.034a.335.335 0 0 1-.165.044v-.696zm-.273.112a.463.463 0 0 0-.138.325h.696a.254.254 0 0 1-.02.098.227.227 0 0 1-.055.077l-.483-.501zm.452.576a.384.384 0 0 0 .082-.116c.007-.014.011-.026.014-.034l.006-.017c.001-.004.001-.002 0 0l-.008.018a.338.338 0 0 1-.064.088l-.483-.501a.372.372 0 0 0-.082.116c-.007.014-.011.026-.014.034l-.006.017c-.001.004-.001.002 0 0l.008-.018a.322.322 0 0 1 .064-.088l.483.501zm-.452-.561-.016.015-.016.015.483.501.016-.015.016-.015-.483-.501zm-.031.03a.407.407 0 0 0-.115.221c-.008.045-.007.084-.007.089h.696c0-.01.001.007-.003.029a.312.312 0 0 1-.088.161l-.483-.501zm.574.311h-.696.696zm-.59-.296a.393.393 0 0 0-.109.186c-.015.057-.013.109-.013.11h.696c0-.014.002.023-.009.065a.305.305 0 0 1-.082.141l-.483-.501zm-.122.296c0 .005-.001.045.007.089a.4.4 0 0 0 .115.221l.483-.501a.302.302 0 0 1 .088.161c.004.022.003.039.003.029h-.696zm.364.408v-.696.696zm.272-.098c-.037.035-.075.052-.067.048s.062-.028.114-.078l-.483-.501c.037-.035.075-.052.067-.048s-.062.028-.114.078l.483.501z" style="fill:var(--color1, #fff)"/><path fill="#fff" d="m2.832 17.278.003.003.016.013c.084.068.214.173.37.214a.642.642 0 0 0 .495-.038l.063-.028.015-.007a.373.373 0 0 1 .052-.021.065.065 0 0 1 .051.001l.009.003c.076.023.138.053.21.088l.105.05a.883.883 0 0 0 .426.094.55.55 0 0 0 .124-.019l.005-.001a.305.305 0 0 1 .053-.01c.017 0 .026.003.046.014l.031.019a.869.869 0 0 0 .096.055l.005.002.005.002a.799.799 0 0 0 .417.057c.061-.009.122-.024.172-.036l.011-.003c.056-.014.1-.024.139-.028a.177.177 0 0 1 .075.004c.012.004.027.012.047.039l.001.001c.04.053.071.105.106.165l.044.073a1.1 1.1 0 0 0 .217.269c.245.216.58.229.844.123a1.557 1.557 0 0 0 .412-.231l.033-.022c.093-.061.236-.156.298-.335a.286.286 0 0 0-.059-.29.334.334 0 0 0-.236-.106.511.511 0 0 0-.296.07c-.074.041-.142.096-.197.14l-.011.009c-.13.105-.201.15-.284.142h-.004c-.032-.002-.065-.019-.11-.085a.994.994 0 0 1-.067-.116l-.01-.02c-.02-.037-.042-.08-.065-.118l-.003-.004c-.122-.185-.3-.367-.589-.407a.778.778 0 0 0-.217.004 2.053 2.053 0 0 0-.093.014l-.008.001-.072.011-.009.002-.052.011a.884.884 0 0 1-.108.017c-.018 0-.04-.002-.087-.032l-.004-.003a.82.82 0 0 0-.222-.098.738.738 0 0 0-.259-.016h-.002a5.29 5.29 0 0 0-.106.013c-.084.011-.123.017-.19-.004a2.13 2.13 0 0 1-.138-.067l-.015-.008c-.046-.024-.098-.052-.152-.076a.732.732 0 0 0-.437-.067c-.089.013-.164.055-.213.082a.564.564 0 0 1-.111.055c-.023.003-.055-.003-.107-.028a1.251 1.251 0 0 1-.09-.05l-.005-.003a1.589 1.589 0 0 0-.103-.057.971.971 0 0 0-.373-.107.438.438 0 0 0-.413.22l-.002.004-.002.004a.227.227 0 0 0 0 .209c.038.074.114.12.201.12.125 0 .226.042.324.124z" style="fill:var(--color1, #fff)"/><path fill="#fff" d="m7.578 17.929.012-.003.011-.005c.257-.102.474-.171.748-.199h.002c.101-.011.199-.018.301-.025l.082-.006a4.01 4.01 0 0 0 .405-.045c.46-.077.99-.254 1.232-.739l.003-.007.035-.086.001-.001.03-.074a.281.281 0 0 1 .051-.084l.005-.005.004-.005h.001c.003-.004.009-.01.047-.013a.741.741 0 0 1 .067 0h.015c.03 0 .068.001.108-.003a.753.753 0 0 0 .395-.118l.005-.003a.749.749 0 0 0 .164-.168l.008-.011a.294.294 0 0 1 .078-.083.392.392 0 0 1 .122-.035 2.382 2.382 0 0 1 .186-.02c.167-.016.317-.049.478-.095.064-.016.125-.033.184-.049.232-.063.425-.117.641-.096h.005c.303.02.575.14.85.301.118.069.232.144.35.221l.061.04c.138.089.28.18.428.259l.007.003a.293.293 0 0 0 .366-.086.28.28 0 0 0-.026-.372c-.408-.44-.996-.819-1.608-.963a2.16 2.16 0 0 0-.911-.048h-.002c-.143.025-.28.063-.407.098l-.1.027a2.101 2.101 0 0 1-.466.082h-.002a1.028 1.028 0 0 0-.43.103 1.113 1.113 0 0 0-.328.269c-.038.041-.059.047-.08.051a.483.483 0 0 1-.072.006l-.017.001c-.028.001-.062.002-.099.005a.672.672 0 0 0-.426.141.921.921 0 0 0-.263.349 1.129 1.129 0 0 1-.018.035.915.915 0 0 1-.144.234l-.005.005c-.131.149-.327.215-.576.275a4.121 4.121 0 0 1-.418.049l-.03.003c-.144.012-.299.024-.45.048-.32.051-.659.157-.894.451a.22.22 0 0 0 .034.333c.035.026.075.044.112.053s.085.014.135.002zm34.502-3.648-.007.021-.002.022-.047.602v.012c0 .037-.003.078-.007.129v.003a1.816 1.816 0 0 0-.008.153l-.003.055v.002a.962.962 0 0 0-.004.083c0 .064.01.158.079.241l.006.007.007.007c.048.046.107.06.152.06s.104-.014.152-.06a.354.354 0 0 0 .099-.235c.003-.043.002-.097.001-.133l-.001-.028v-.869a.194.194 0 0 0-.051-.162.208.208 0 0 0-.15-.063.227.227 0 0 0-.215.151z" style="fill:var(--color1, #fff)"/><path fill="#fff" d="m42.273 14.37-.003.033c-.014.134-.028.268-.028.415a.854.854 0 0 1-.007.092l-.001.008c-.003.031-.008.072-.008.11l-.001.036-.001.013a.557.557 0 0 0 0 .071.345.345 0 0 0 .069.197l.008.01.009.009a.252.252 0 0 0 .173.071.22.22 0 0 0 .186-.1.344.344 0 0 0 .062-.186.835.835 0 0 0 0-.071l-.001-.013-.001-.036v-.21c0-.08-.004-.155-.008-.225v-.002c-.004-.072-.008-.139-.008-.208a.218.218 0 0 0-.22-.219.217.217 0 0 0-.22.207zM28.82 3.939c-.015.193-.031.394-.031.596 0 .037-.003.078-.007.129v.003a1.816 1.816 0 0 0-.008.153v.15l-.001.018v.002a.49.49 0 0 0-.002.045.25.25 0 0 0 .045.147.196.196 0 0 0 .059.062c.037.024.076.03.105.03s.067-.006.105-.03a.18.18 0 0 0 .056-.057.255.255 0 0 0 .051-.106c.009-.037.008-.074.008-.093v-.154c0-.037.003-.078.007-.129v-.003c.004-.044.008-.096.008-.146.016-.2.016-.399.016-.604v-.046l-.019-.038a.215.215 0 0 0-.191-.116.198.198 0 0 0-.199.187zM3.814 6.156v.012l.023.345.023.346v.005l.001.005c.007.054.011.105.015.162v.002c.004.055.008.116.016.181v.003c.003.019.004.039.006.064l.001.01.006.076a.483.483 0 0 0 .065.202c.016.034.042.06.067.077.037.024.076.03.105.03s.067-.006.105-.03a.184.184 0 0 0 .081-.117.856.856 0 0 0 .003-.367l-.001-.009c-.007-.054-.01-.104-.014-.161V6.99c-.004-.054-.008-.113-.016-.176-.008-.114-.02-.227-.031-.337v-.001a10.264 10.264 0 0 1-.031-.332l-.002-.023-.008-.022a.222.222 0 0 0-.209-.151.207.207 0 0 0-.207.208z" style="fill:var(--color1, #fff)"/><path fill="#fff" d="m4.098 6.481-.02.038v.045c0 .191 0 .375.016.574 0 .184.016.388.065.582.01.057.046.098.082.121.037.024.076.03.105.03s.067-.006.105-.03a.182.182 0 0 0 .083-.132c.025-.152.022-.318.019-.458l-.002-.12v-.007l-.001-.007a7.899 7.899 0 0 1-.011-.172 4.011 4.011 0 0 0-.037-.412l-.004-.028-.013-.025c-.043-.083-.125-.116-.193-.116s-.151.034-.193.116zm26.789 3.121-3.11 9.969h-1.21l-2.525-7.603a10.856 10.856 0 0 1-.07-.237c-.019-.083-.039-.172-.063-.264-.023.093-.046.181-.07.264s-.046.162-.07.237l-2.539 7.603h-1.21l-3.11-9.969h1.12c.121 0 .22.03.299.09.083.06.137.137.16.23l2.059 6.929c.032.125.063.26.09.403.032.144.063.297.09.459.032-.162.065-.315.097-.459.037-.148.077-.283.118-.403l2.344-6.929a.496.496 0 0 1 .16-.216.448.448 0 0 1 .299-.104h.39c.121 0 .218.03.292.09s.13.137.167.23l2.337 6.929c.042.121.079.25.111.39.037.139.072.285.104.438a8.968 8.968 0 0 1 .167-.828l2.066-6.929a.442.442 0 0 1 .153-.223.47.47 0 0 1 .299-.097h1.05z" style="fill:var(--color1, #fff)"/></symbol></defs></svg>